<?xml version="1.0" standalone="no"?>
<!DOCTYPE svg PUBLIC "-//W3C//DTD SVG 1.1//EN" "http://www.w3.org/Graphics/SVG/1.1/DTD/svg11.dtd" >
<svg xmlns="http://www.w3.org/2000/svg" xmlns:xlink="http://www.w3.org/1999/xlink" version="1.1">
<metadata>
Created by FontForge 20190801 at Tue Oct  3 06:37:17 2006
 By Jimmy Wärting
Copyright (c) 2006 by Nate Piekos. Blambot.com. All rights reserved.
</metadata>
<defs>
<font id="AnimeAce2.0BB" horiz-adv-x="793" >
  <font-face 
    font-family="Anime Ace 2.0 BB"
    font-weight="400"
    font-stretch="normal"
    units-per-em="1024"
    panose-1="2 0 5 3 0 0 0 2 0 4"
    ascent="819"
    descent="-205"
    x-height="844"
    cap-height="877"
    bbox="-91.4412 -151 983 1091"
    underline-thickness="0"
    underline-position="0"
    unicode-range="U+0020-2122"
  />
<missing-glyph horiz-adv-x="524" 
d="M66 0v1044h393v-1044h-393zM131 66h262v913h-262v-913z" />
    <glyph glyph-name=".notdef" horiz-adv-x="524" 
d="M66 0v1044h393v-1044h-393zM131 66h262v913h-262v-913z" />
    <glyph glyph-name="NULL" horiz-adv-x="0" 
 />
    <glyph glyph-name="nonmarkingreturn" horiz-adv-x="424" 
 />
    <glyph glyph-name="space" unicode=" " horiz-adv-x="424" 
 />
    <glyph glyph-name="exclam" unicode="!" horiz-adv-x="406" 
d="M419 922q0 -7 -66 -147q-42 -89 -84 -179q-46 -107 -56 -187q-3 -29 -6 -57q-8 -26 -45 -26q-53 0 -53 30q0 18 7 44q11 41 12 44q23 124 45 247q34 171 67 231q17 31 83 31q24 0 54 -6q42 -9 42 -25zM195 207q0 -14 -13 -71.5t-19 -70.5q-11 -24 -54 -24q-47 0 -47 30
q0 85 8 128q4 25 69 25q56 0 56 -17z" />
    <glyph glyph-name="quotedbl" unicode="&#x22;" horiz-adv-x="481" 
d="M416 918q0 -203 -15 -293q-8 -50 -53 -50q-50 0 -50 80q0 11 1 28.5t1 24.5q0 32 -3.5 95.5t-3.5 95.5q0 27 24 43q22 15 50 15q49 0 49 -39zM220 898q0 -200 -15 -293q-7 -46 -58 -46q-45 0 -45 61q0 10 1.5 30t1.5 30q0 34 -4.5 100t-4.5 100q0 26 23.5 42t51.5 16
q49 0 49 -40z" />
    <glyph glyph-name="numbersign" unicode="#" horiz-adv-x="794" 
d="M735 318q0 -19 -19 -27q-15 -6 -99 -18q21 -153 21 -191q0 -22 -32 -37q-26 -12 -51 -12q-32 0 -38 22q-8 28 -9 98v103q-82 -13 -207 -27q1 -60 7 -121q5 -55 5 -50q0 -24 -27 -41q-23 -13 -49 -13q-48 0 -48 43q0 62 6 170q-39 -4 -48 -4q-28 0 -51.5 26t-23.5 55
t27 33l100 3q2 63 6 130q-32 -6 -48 -6q-35 0 -60 24.5t-25 59.5q0 26 27 30l112 3q2 75 13 225q6 60 86 60q36 0 36 -25q0 -48 -13 -128q-17 -94 -19 -126q106 6 183 24q-2 104 -2 147q0 58 23 81.5t82 23.5q37 0 37 -29q0 -34 -8 -95q-9 -67 -11 -95q42 13 51 13
q23 0 44 -30t21 -56q0 -22 -18 -30q-11 -4 -103 -17q-1 -35 -1 -91v-32q52 15 58 15q24 0 44.5 -31.5t20.5 -56.5zM503 361q-2 46 -4 135q-65 -10 -193 -25q-5 -60 -5 -137q113 7 202 27z" />
    <glyph glyph-name="dollar" unicode="$" horiz-adv-x="849" 
d="M787 415q0 -20 -6 -41q-61 -218 -282 -326q8 -53 8 -59q0 -26 -28 -45.5t-55 -19.5q-31 0 -39 28q-2 10 -2 52q-72 -17 -113 -17q-86 0 -148 78q-32 39 -32 65q0 18 13 47q16 33 32 33q2 0 33 -27q36 -30 74 -48q56 -26 120 -26h17q-6 134 -9 290q-75 4 -224 15
q-60 6 -70 51q-4 19 -4 41q0 79 109 187q97 94 184 133v23q-1 15 -1 22q0 50 25.5 81t74.5 31q41 0 41 -38q0 -8 -7 -80q58 8 88 8q28 0 40 -6q17 -10 17 -39q0 -19 8.5 -57.5t8.5 -57.5q0 -22 -28.5 -44.5t-50.5 -22.5q-18 0 -30 34q-1 2 -14 48q-13 1 -25 1q-11 0 -24 -1
q-6 -99 -8 -194q70 -6 140 -11q81 -8 135 -27q32 -12 32 -81zM366 541v77q-1 54 -1 78q-39 -19 -90 -62q-60 -51 -60 -82q0 -13 75 -13q13 0 38.5 1t37.5 1zM643 319q0 37 -65 54q-1 1 -98 14q0 -107 10 -253q58 23 103 73q50 56 50 112z" />
    <glyph glyph-name="percent" unicode="%" horiz-adv-x="912" 
d="M868 327q0 -113 -134 -195q-118 -71 -238 -71q-110 0 -150 64q-22 -43 -44 -87q-32 -50 -73 -50q-23 0 -45 10q-26 12 -26 34q0 14 227 362q-83 -29 -161 -29q-68 0 -111 26q-54 32 -54 96q0 99 113 241q95 122 210 122q67 0 123 -49q50 -43 79 -110q31 50 102 146
q27 33 67 33q25 0 51 -13q31 -16 31 -39q0 -10 -8 -21q-22 -27 -66 -80q-54 -66 -133 -171q14 2 27 2q76 0 144.5 -72.5t68.5 -148.5zM488 586q0 56 -29 98q-33 48 -87 48q-60 0 -125.5 -55t-65.5 -114q0 -48 56 -76q44 -22 98 -22q62 0 104 29q49 32 49 92zM761 278
q0 57 -33 102q-35 51 -90 51q-54 0 -123.5 -56.5t-69.5 -109.5q0 -45 54 -75q45 -25 95 -25q58 0 107 26q60 32 60 87z" />
    <glyph glyph-name="ampersand" unicode="&#x26;" horiz-adv-x="800" 
d="M732 162q0 -170 -1 -189q-2 -29 -27 -47.5t-56 -18.5q-38 0 -38 28q0 18 12 103q-115 -53 -228 -53q-123 0 -221 53q-121 63 -121 176q0 88 74 160q50 49 152 101q-85 50 -85 146q0 89 104 200q65 71 157 71q97 0 167 -77q48 -52 48 -87q0 -15 -9 -31q-9 -18 -22 -18
q-6 0 -64.5 38.5t-104.5 38.5q-56 0 -102 -46.5t-46 -104.5q0 -51 29 -67q15 -9 65 -12q46 -3 66 -19q33 -27 33 -63q0 -40 -54 -50q-58 -6 -116 -13q-76 -13 -113 -60q-32 -42 -32 -89q0 -69 67 -113q59 -38 132 -38q98 0 231 73l1 25q1 53 -13 128q-19 114 -19 132
q0 20 33 35q26 12 50 12q28 0 37 -20q14 -32 14 -304z" />
    <glyph glyph-name="quotesingle" unicode="'" horiz-adv-x="336" 
d="M298 912q0 -14 -60 -135q-59 -115 -76.5 -141t-39.5 -26t-38 12q-19 12 -19 32q0 16 15.5 48.5t45.5 114.5q28 75 49 114q15 31 53 31q24 0 45 -13q25 -15 25 -37z" />
    <glyph glyph-name="parenleft" unicode="(" horiz-adv-x="593" 
d="M549 856q0 -11 -10 -22q-18 -19 -52 -40q-47 -29 -55 -35q-279 -209 -279 -407q0 -96 86 -171q69 -60 176 -93q37 -8 99 -31q27 -15 27 -49q0 -23 -13 -48q-14 -29 -35 -30q-37 22 -104 51q-76 33 -104 48q-104 54 -169 138q-75 96 -75 203q0 143 133 299q65 74 140 145
q111 101 157 101q25 0 51.5 -17.5t26.5 -41.5z" />
    <glyph glyph-name="parenright" unicode=")" horiz-adv-x="628" 
d="M570 476q0 -142 -134 -298q-64 -76 -140 -144q-110 -102 -157 -102q-24 0 -49 18q-28 18 -28 42q0 11 10 21q17 19 51 40q47 29 55 35q279 208 279 407q0 96 -86 171q-70 60 -175 93q-37 8 -100 31q-24 15 -24 50q0 23 11 48q14 28 36 30q35 -21 103 -51q73 -30 105 -48
q105 -58 170 -140q73 -95 73 -203z" />
    <glyph glyph-name="asterisk" unicode="*" horiz-adv-x="493" 
d="M439 854q0 -10 -103 -94q28 -18 54 -35q33 -25 33 -51q0 -15 -9.5 -32t-22.5 -17q-5 0 -96 74v-94q0 -20 -18 -33.5t-38 -13.5q-27 0 -27 21q0 12 8 90q-18 -16 -36 -30q-23 -17 -42 -17q-17 0 -35 13.5t-18 30.5q0 11 56 47q35 21 71 43q-57 24 -132 64q-7 6 -7 20
q0 16 9.5 38t24.5 22q8 0 107 -62q-16 88 -16 91q0 14 22 24q19 10 35 10q22 0 26 -15q7 -23 8 -64v-66q75 85 88 85q17 0 37.5 -16.5t20.5 -32.5z" />
    <glyph glyph-name="plus" unicode="+" horiz-adv-x="708" 
d="M649 431q0 -24 -19 -32q-34 -13 -111 -21q-59 -6 -120 -11q4 -22 27 -87q18 -55 18 -86q0 -23 -31 -41q-28 -16 -54 -16q-24 0 -32 19q-13 32 -20 98q-4 51 -9 102q-156 -14 -165 -14q-28 0 -48 28q-18 24 -18 54q0 28 21 33h44h88q38 0 67 2q-18 154 -18 192
q0 29 27 48.5t56 19.5q34 0 33 -25v-105q0 -67 3 -121q29 4 102 28q65 21 102 21q22 0 41 -33q16 -28 16 -53z" />
    <glyph glyph-name="comma" unicode="," horiz-adv-x="396" 
d="M314 151q0 -14 -61 -135q-57 -112 -75 -139.5t-41 -27.5q-20 0 -38.5 12t-18.5 31q0 18 15 49t45 114q28 74 49 114q17 31 55 31q23 0 45 -13q25 -15 25 -36z" />
    <glyph glyph-name="hyphen" unicode="-" horiz-adv-x="665" 
d="M627 422q0 -20 -17 -29q-26 -14 -238 -46q-206 -31 -256 -31q-29 0 -49.5 26t-20.5 56q0 36 60 36q9 0 22 -1h17q119 0 213 17q23 4 113 32q83 27 97 27q25 0 43 -33q16 -29 16 -54z" />
    <glyph glyph-name="hyphen" unicode="&#x2010;" horiz-adv-x="665" 
d="M627 422q0 -20 -17 -29q-26 -14 -238 -46q-206 -31 -256 -31q-29 0 -49.5 26t-20.5 56q0 36 60 36q9 0 22 -1h17q119 0 213 17q23 4 113 32q83 27 97 27q25 0 43 -33q16 -29 16 -54z" />
    <glyph glyph-name="period" unicode="." horiz-adv-x="319" 
d="M236 183q0 -14 -13 -73t-19 -72q-11 -26 -54 -26q-47 0 -47 32q0 85 9 133q5 28 67 28q57 0 57 -22z" />
    <glyph glyph-name="slash" unicode="/" horiz-adv-x="711" 
d="M709 826q0 -14 -54 -78q-274 -331 -429 -602q-22 -47 -46 -93q-33 -55 -78 -55q-23 0 -44 10q-25 14 -25 35q0 16 35 68q22 34 46 68q203 318 359 545q28 43 87 123q28 31 72 31q27 0 50 -12q27 -15 27 -40z" />
    <glyph glyph-name="zero" unicode="0" horiz-adv-x="1022" 
d="M983 478q0 -198 -157 -345q-154 -142 -354 -142q-174 0 -295 117t-121 290q0 199 157 344q154 144 353 144q174 0 295.5 -117.5t121.5 -290.5zM833 431q0 138 -91 241q-94 106 -230 106q-133 0 -226 -108q-88 -104 -88 -239q0 -137 91 -240q93 -105 229 -105
q133 0 225 108q90 102 90 237z" />
    <glyph glyph-name="one" unicode="1" horiz-adv-x="368" 
d="M309 74q0 -24 -36 -38q-27 -12 -55 -12q-21 0 -29 20q-13 40 -15 142q-1 74 -1 149q-4 181 -6 335q-69 -33 -79 -33q-18 0 -36 27q-16 23 -16 43q0 27 37 47t91 43q66 26 92 26q29 0 29 -25q0 -24 -4 -62q-6 -46 -7 -60q-4 -68 -4 -166q0 -188 23 -339q1 -7 10 -48
q6 -30 6 -49z" />
    <glyph glyph-name="two" unicode="2" horiz-adv-x="746" 
d="M686 122q0 -19 -11 -43t-23 -34q-41 -34 -254 -43q-69 -3 -261 -3q-35 0 -50 11q-21 16 -21 59q0 13 3 22q4 65 60 80q184 51 290 148q95 89 124 145q8 15 8 41q0 36 -11 75q-25 82 -91 126q-58 38 -130 38q-115 0 -164 -89q-17 -28 -22 -34q-12 -15 -32 -15
q-19 0 -19 47q0 59 28 123.5t65 94.5q27 22 76 22q132 0 252 -107q125 -110 162 -277q4 -19 4 -45q0 -45 -27 -77q-21 -27 -112 -105q-98 -85 -182 -147q209 11 317 11q21 0 21 -24z" />
    <glyph glyph-name="three" unicode="3" horiz-adv-x="775" 
d="M718 303q0 -138 -164 -237q-144 -88 -292 -88q-40 0 -92 10q-62 11 -87 27q-29 19 -29 61q0 49 33 49q8 0 36 -11q82 -34 169 -34q96 0 181 53q98 62 98 153q0 56 -38 85.5t-96 29.5q-23 0 -69.5 -8t-70.5 -8q-43 0 -43 39q0 36 34 71q21 22 68.5 36.5t62.5 24.5
q28 23 28 75q0 49 -37.5 83.5t-87.5 34.5q-42 0 -85 -31q-19 -12 -65 -56q-32 -31 -46 -31q-25 0 -25 45q0 35 47 95q40 52 95 85q61 37 121 37q76 0 144.5 -74.5t68.5 -151.5q0 -85 -85 -157q100 -30 151 -68q75 -54 75 -139z" />
    <glyph glyph-name="four" unicode="4" 
d="M781 368q0 -29 -69 -40l-95 -9q3 -35 18 -120q14 -77 14 -121q0 -22 -32 -37q-26 -12 -50 -12q-29 0 -38 20q-11 28 -13 124q0 67 -1 133q-113 -17 -198 -40q-8 -2 -102 -34q-79 -25 -93 -25q-26 0 -41.5 21t-15.5 46q0 15 5 26q-9 254 -9 387q0 115 82 115q39 0 39 -32
q0 -39 -6 -107q-6 -76 -7 -108q-1 -40 -1 -86q0 -57 2 -114q175 54 342 69q-6 212 -6 324q0 36 21.5 59t58.5 23q39 0 39 -28q0 -23 -3 -58q-6 -46 -7 -56q-5 -78 -5 -160q0 -50 2 -98q12 0 34.5 1t33.5 1q28 0 62 -18q39 -22 39 -46z" />
    <glyph glyph-name="five" unicode="5" horiz-adv-x="684" 
d="M634 810q0 -29 -67 -37q-166 -21 -174 -22q-98 -16 -170 -42l39 -181q225 -10 310 -117q58 -73 58 -152q0 -78 -58 -145q-49 -60 -128 -95q-62 -27 -148 -27q-88 0 -155 20q-98 31 -98 99q0 32 22 32q7 0 37 -11q92 -34 172 -34q86 0 154 41q79 48 79 129q0 66 -55 111
q-52 42 -118 42q-23 0 -66 -9.5t-65 -9.5q-51 0 -72 80l-58 230q-6 24 -6 33q0 37 36 56q71 35 187 57q106 21 195 21q38 0 60 -3q25 -4 55 -22q34 -21 34 -44z" />
    <glyph glyph-name="six" unicode="6" horiz-adv-x="870" 
d="M816 351q0 -88 -98 -184q-82 -81 -178 -122q-85 -36 -163 -36q-146 0 -238 124q-85 113 -85 263q0 101 43.5 194t120.5 160q122 104 326 104q34 0 46 -6q18 -9 28 -40q30 -83 57 -139q2 -4 2 -11q0 -20 -24.5 -40.5t-46.5 -20.5q-25 0 -49 44q-15 33 -31 67
q-187 -30 -277.5 -137.5t-89.5 -217.5q310 111 487 111q170 0 170 -113zM706 307q0 38 -90 38q-107 0 -423 -113q57 -91 184 -91q52 0 111.5 16.5t126.5 54.5q91 51 91 95z" />
    <glyph glyph-name="seven" unicode="7" horiz-adv-x="693" 
d="M694 733q0 -6 -9 -21q-175 -292 -254 -557q-7 -35 -29 -101q-12 -25 -53 -25q-21 0 -43 8q-26 11 -26 31q0 41 271 637q-57 2 -109 2q-182 0 -291 -24q-72 -15 -84 -15q-25 0 -40 19.5t-15 43.5q0 47 46 65q82 32 322 32q175 0 240 -22q30 -11 57 -42q17 -21 17 -31z" />
    <glyph glyph-name="eight" unicode="8" horiz-adv-x="850" 
d="M791 260q0 -144 -189 -235q-155 -76 -317 -76q-232 0 -232 148q0 77 64 175q50 78 123 146q-52 8 -86 42.5t-34 85.5q0 90 112 231q97 121 218 121q75 0 144 -75q65 -73 65 -150q0 -86 -84 -157q79 -24 145 -98q71 -80 71 -158zM550 632q0 56 -31 100q-35 48 -89 48
q-60 0 -123 -54q-64 -57 -64 -117q0 -48 51 -73q42 -21 94 -21q63 0 108 27q54 32 54 90zM640 216q0 72 -47 127q-50 57 -121 57q-81 0 -180 -66q-109 -73 -109 -150q0 -60 87 -93q66 -23 139 -23q87 0 150 30q81 40 81 118z" />
    <glyph glyph-name="nine" unicode="9" horiz-adv-x="862" 
d="M798 591q0 -17 -5 -49q-22 -140 -22 -251q0 -41 8 -122.5t8 -122.5q0 -24 -33 -41q-28 -14 -56 -14q-29 0 -35 29v54t-7.5 153t-7.5 153q-164 -99 -361 -99q-96 0 -154 32q-74 42 -74 130q0 105 153 273q58 64 133 103q82 42 163 42q82 0 149 -49q141 -102 141 -221z
M648 550q0 73 -48 127q-49 58 -120 58q-82 0 -181 -67q-109 -73 -109 -150q0 -60 89 -92q65 -25 138 -25q87 0 150 31q81 40 81 118z" />
    <glyph glyph-name="colon" unicode=":" horiz-adv-x="337" 
d="M266 512q0 -15 -12.5 -75t-19.5 -73q-11 -25 -54 -25q-46 0 -46 31q0 87 8 134q5 27 68 27q56 0 56 -19zM238 183q0 -14 -13 -73t-19 -72q-11 -26 -54 -26q-47 0 -47 32q0 87 9 133q5 28 68 28q56 0 56 -22z" />
    <glyph glyph-name="semicolon" unicode=";" horiz-adv-x="366" 
d="M275 512q0 -15 -12.5 -75t-18.5 -73q-12 -25 -55 -25q-46 0 -46 31q0 85 9 134q4 27 67 27q56 0 56 -19zM304 151q0 -15 -60 -135q-59 -113 -76.5 -140t-40.5 -27q-21 0 -39 12t-18 31q0 16 15.5 49t46.5 113q28 76 48 115q17 31 54 31q24 0 47 -13.5t23 -35.5z" />
    <glyph glyph-name="less" unicode="&#x3c;" horiz-adv-x="774" 
d="M728 860q0 -18 -61 -56q-280 -172 -486 -393q121 -79 425 -288q30 -20 85 -61q28 -23 28 -50q0 -20 -13 -46q-16 -29 -34 -29q-13 0 -61 40q-264 226 -475 330q-34 16 -67 31q-43 22 -43 51q0 23 14 52q16 34 37 33q88 77 441 362q31 25 93 73q22 15 38 15q21 0 50 -21.5
t29 -42.5z" />
    <glyph glyph-name="equal" unicode="=" horiz-adv-x="774" 
d="M643 562q0 -18 -17 -28q-25 -15 -238 -48q-207 -31 -256 -31q-29 0 -49.5 25.5t-20.5 56.5q0 23 23 31q13 4 92 6q96 3 102 3q88 6 210 45q90 27 96 27q24 0 43 -33q15 -28 15 -54zM699 342q0 -18 -17 -28q-30 -15 -240 -47q-203 -31 -255 -31q-28 0 -49 26t-21 54
q0 31 44 36q34 1 67 1q129 5 201 18q22 4 115 32q86 27 96 27q24 0 43 -34q16 -29 16 -54z" />
    <glyph glyph-name="greater" unicode="&#x3e;" horiz-adv-x="787" 
d="M748 390q0 -29 -43 -52q-34 -15 -68 -31q-205 -105 -413 -276q-31 -27 -62 -55q-50 -41 -63 -41q-17 0 -32 31q-13 28 -13 47q0 25 27 49q5 6 86 61q140 97 425 288q-189 198 -434 361q-36 20 -102 67q-10 9 -10 21q0 25 25.5 43t51.5 18q18 0 38.5 -11.5t48.5 -35.5
l46 -38q148 -118 439 -362q21 1 38 -33q15 -28 15 -51z" />
    <glyph glyph-name="question" unicode="?" horiz-adv-x="814" 
d="M785 698q0 -70 -59 -129q-132 -130 -471 -152q-9 -47 -14 -57q-14 -21 -52 -21q-50 0 -50 25q0 140 19 152q5 4 110 4q218 0 292 65q57 50 57 100q0 74 -92 121q-76 39 -158 39q-58 0 -123 -32q-40 -18 -100 -57q-46 -32 -55 -32q-17 0 -17 34q0 46 28 73q59 56 160 92
q96 33 182 33q123 0 227 -66q116 -75 116 -192zM231 189q0 -9 -12.5 -56.5t-17.5 -56.5q-12 -21 -55 -21q-47 0 -47 30q0 53 9 93q5 28 70 28q53 0 53 -17z" />
    <glyph glyph-name="at" unicode="@" horiz-adv-x="1020" 
d="M954 505q0 -129 -73.5 -256.5t-190.5 -206.5q-124 -83 -254 -83q-160 0 -269.5 111.5t-109.5 271.5q0 129 74 258q73 126 190 206q122 84 252 84q159 0 270 -112.5t111 -272.5zM819 440q0 128 -73 228q-79 109 -203 109q-81 0 -167 -50q-193 -113 -193 -332
q0 -128 72 -227q80 -111 203 -111q81 0 167 51q194 113 194 332zM700 365q0 -104 -73 -162q-68 -55 -174 -55q-63 0 -105 26q-50 30 -50 88q0 69 66 161.5t178 92.5q33 0 73 -8q-9 66 -71 66q-26 0 -74.5 -11t-74.5 -11t-44.5 15.5t-18.5 41.5q0 30 92 46q65 12 122 12
q76 0 97 -17q34 -25 45 -105q5 -62 9 -122q3 -41 3 -58zM608 343q0 29 -22.5 57t-49.5 28q-37 0 -97 -43q-63 -44 -63 -79q0 -30 37 -48q30 -15 64 -15q48 0 87 25q44 29 44 75z" />
    <glyph glyph-name="A" unicode="A" 
d="M798 101q0 -25 -28 -48t-54 -23q-27 0 -54 55q-17 40 -33 80q-190 -46 -474 -98q-35 -84 -63 -84q-29 0 -54.5 33.5t-25.5 63.5q0 16 27 58q18 30 38 59q71 122 142 304q59 156 117 314q20 53 79 53q27 0 43 -27q13 -24 26 -66q22 -64 23 -68q106 -284 227 -489
q19 -30 37 -58q27 -45 27 -59zM573 294q-54 131 -166 392q-43 -98 -193 -483q198 31 359 91z" />
    <glyph glyph-name="B" unicode="B" horiz-adv-x="825" 
d="M762 203q0 -104 -180 -164q-110 -37 -337 -37q-52 0 -70 2q-44 6 -59.5 30t-23.5 466q-4 -1 -8 -1q-22 0 -35 26q-10 21 -10 45q0 54 77 137q65 69 126 105q86 50 192 50q123 0 201 -62q84 -68 84 -188q0 -122 -160 -217q75 -21 132 -68q71 -58 71 -124zM620 601
q0 65 -72 102q-59 31 -129 31q-110 0 -222 -114q-2 -61 -2 -125q0 -46 1 -95q286 8 368 92q56 56 56 109zM662 201q0 51 -112 83q-86 25 -156 25q-106 0 -190 -62q6 -64 14 -119q113 -8 194 -8q157 0 205 30q45 26 45 51z" />
    <glyph glyph-name="C" unicode="C" horiz-adv-x="805" 
d="M782 249q0 -21 -29 -45q-25 -17 -48 -33q-235 -165 -412 -165q-122 0 -192 86q-64 79 -64 204q0 240 187 406q180 161 423 161q47 0 58 -17q6 -10 6 -61q0 -18 11 -53t11 -52q0 -26 -31.5 -50t-58.5 -24q-21 0 -35 46q-7 32 -14 65q-232 -36 -352 -173
q-108 -123 -108 -235q0 -78 65 -127q58 -44 139 -44q73 0 176 42q64 26 159 78q77 42 86 42q23 0 23 -51z" />
    <glyph glyph-name="D" unicode="D" horiz-adv-x="856" 
d="M831 509q0 -188 -185 -322q-147 -107 -359 -149q-37 -6 -110 -21l-58 -14q-17 0 -26.5 19t-19.5 507q-19 23 -19 55q0 29 21 58q10 13 44 46q175 169 369 169q143 0 243 -102.5t100 -245.5zM697 475q0 107 -78 180.5t-185 73.5q-133 0 -257 -117q-4 -70 -4 -140
q0 -173 26 -334q187 18 319 85q179 92 179 252z" />
    <glyph glyph-name="E" unicode="E" horiz-adv-x="770" 
d="M748 506q0 -27 -68 -35q-332 -38 -506 -96q4 -127 23 -246q94 0 216 24q107 23 214 47q18 4 30 4q41 0 41 -35q0 -23 -15.5 -47.5t-35.5 -35.5q-84 -48 -229 -75q-124 -21 -244 -21q-61 0 -81 33q-12 21 -20 328q-42 15 -42 64q0 45 38 60h1q-7 102 -7 215q0 49 2 52
q4 29 24 44q10 9 51 21q65 20 129 41q75 20 134 20h42q55 1 76 -4q37 -8 63.5 -38t26.5 -55q0 -34 -61 -39q-151 -13 -191 -20q-79 -15 -183 -59q-5 -69 -5 -146q238 70 429 70q37 0 58 -4q26 -3 56 -22q34 -23 34 -45z" />
    <glyph glyph-name="F" unicode="F" horiz-adv-x="710" 
d="M693 503q0 -8 -4 -15q-11 -15 -58 -20q-294 -34 -464 -93q2 -65 15 -159q6 -39 14 -78q7 -47 7 -79q0 -25 -30 -42q-25 -13 -52 -13q-30 0 -39 21t-15 323q-42 11 -42 67q0 49 38 58q-6 165 -6 211q0 48 1 54q4 30 25 45q10 9 51 21q130 40 149 45q71 16 156 16
q56 0 76 -4q37 -8 63.5 -37.5t26.5 -54.5q0 -35 -62 -40q-147 -12 -190 -20q-81 -15 -184 -59q-4 -73 -4 -143q217 66 393 66q33 0 52 -3q25 -4 54 -24.5t29 -42.5z" />
    <glyph glyph-name="G" unicode="G" horiz-adv-x="915" 
d="M867 388q0 -79 -135 -188q-246 -200 -441 -200q-128 0 -198 87q-64 80 -64 211q0 237 188 401q180 159 421 159q44 0 56 -15q7 -9 7 -58q0 -20 12 -58.5t12 -58.5q0 -21 -34 -44t-56 -23q-20 0 -35 47q-3 10 -15 65q-205 -32 -324 -146q-55 -53 -93 -120
q-43 -76 -43 -142q0 -76 55.5 -122.5t131.5 -46.5q92 0 222 50.5t191 113.5q25 26 25 40q0 37 -90 37q-87 0 -281 -39q-33 -7 -65 -15q-42 -10 -65 -10q-30 0 -30 30q0 26 26 58q22 29 48 42q39 21 160 34q97 11 165 11q249 0 249 -100z" />
    <glyph glyph-name="H" unicode="H" horiz-adv-x="780" 
d="M769 497q0 -36 -81 -36q0 -174 12 -270q1 -5 9 -47q5 -28 5 -48q0 -24 -27.5 -39t-52.5 -15q-33 0 -41 24t-8 77q1 -107 1 82q0 43 -4 111q-4 91 -5 111q-209 -28 -374 -90q7 -131 19 -210q16 -91 16 -100q0 -20 -32 -36q-28 -13 -51 -13q-29 0 -37 20q-6 17 -7 55
q0 28 -1 57q-11 152 -22 303q-13 181 -13 304q0 37 28 61q26 21 65 21q45 0 45 -35q0 -2 -6 -87q-7 -99 -7 -207q186 61 373 71l-2 177q0 79 25 101q29 24 79 24q39 0 38 -29v0v-1l-1 -6l-1 -17l-9 -68q-8 -85 -12 -180q26 -6 49 -23q30 -21 30 -42z" />
    <glyph glyph-name="I" unicode="I" horiz-adv-x="623" 
d="M581 777q0 -12 -4 -18q-11 -17 -58 -20q-101 -7 -178 -14q-9 -116 -9 -225q0 -190 27 -363q7 1 94 27q58 16 95 16q30 0 30 -24q0 -19 -15 -43t-32 -34q-60 -37 -185 -61q-109 -21 -196 -21q-48 0 -69 11q-30 16 -30 59q0 53 68 53q10 0 30 -1.5t28 -1.5q39 0 69 3
q-14 191 -18 574q-111 -49 -128 -49q-25 0 -40 32q-11 24 -11 53q0 53 37 75q126 72 313 72q70 0 104 -11q55 -16 74 -65q4 -11 4 -24z" />
    <glyph glyph-name="J" unicode="J" horiz-adv-x="888" 
d="M826 630q0 -184 -50 -346q-37 -121 -132 -195t-220 -74q-157 0 -263 128q-101 121 -101 281q0 56 63 56q36 0 46 -64q24 -143 91 -203q82 -73 184 -73q86 0 151 45q69 47 87 128q13 59 13 155q0 214 -30 258q-12 16 -48 16q-35 0 -103.5 -15.5t-93.5 -15.5q-23 0 -23 29
q0 74 52 96q71 29 226 29q83 0 109 -21q20 -16 28 -49q14 -57 14 -165z" />
    <glyph glyph-name="K" unicode="K" horiz-adv-x="786" 
d="M745 785q0 -14 -44 -52q-16 -14 -215 -199q-128 -120 -197 -189q177 -135 358 -213q24 -9 47 -18q35 -16 35 -27q0 -20 -43 -39q-37 -16 -61 -16q-22 0 -224 70q-118 42 -200 107q16 -119 16 -132q0 -25 -28 -42q-24 -13 -51 -13q-30 0 -40 21q-7 14 -15 322
q-7 270 -7 358q0 47 1 54q6 31 34 48.5t61 17.5q44 0 44 -29q0 -26 -5 -65q-7 -59 -8 -65q-12 -117 -12 -254l2 -2l2 -1q397 373 450 388q18 5 38 5q62 0 62 -35z" />
    <glyph glyph-name="L" unicode="L" horiz-adv-x="702" 
d="M696 196q0 -51 -51 -82q-67 -41 -218 -72q-136 -28 -230 -28q-87 0 -106 36q-12 23 -21 308q-9 231 -9 339q0 71 9 94q16 45 74 45q39 0 39 -28q0 5 -8 -109q-7 -99 -7 -190q0 -195 27 -352q105 0 197 16q19 3 136 33q101 25 126 25q42 0 42 -35z" />
    <glyph glyph-name="M" unicode="M" horiz-adv-x="976" 
d="M975 108q0 -25 -26.5 -54.5t-51.5 -29.5q-12 0 -20 10q-13 15 -85 264q-43 152 -87 302q-46 -160 -92 -319q-74 -264 -86 -278q-14 -18 -27 -18q-25 0 -46 39q-19 35 -19 67q0 6 1 11q-23 72 -144 465q-41 -135 -153 -481q-7 -29 -29 -83q-12 -19 -25 -19q-23 0 -46 40
q-23 36 -23 61q0 14 18 53q12 27 24 53q54 124 101 294l80 298q15 54 55 54q22 0 38 -51q8 -34 16 -69q44 -181 151 -457q59 167 115 393q15 65 46 192q15 53 55 53q25 0 44 -70q10 -47 19 -93q73 -310 151 -506q46 -116 46 -121z" />
    <glyph glyph-name="N" unicode="N" horiz-adv-x="834" 
d="M786 839q0 -9 -9 -58q-40 -211 -40 -453q0 -91 5 -154q1 -11 6 -41q4 -25 4 -41q0 -65 -87 -65q-37 0 -35 21l-453 512q-6 -97 -6 -185q0 -159 14 -263q1 -6 8 -40q5 -25 5 -41q0 -24 -30 -40q-26 -15 -51 -15q-32 0 -40 24q-5 12 -14 310q-9 276 -9 330q0 90 8 110
q18 47 93 47q26 0 38 -14l441 -513q1 34 12 272q3 68 5 138q4 81 13 137q8 61 87 61q35 0 35 -39z" />
    <glyph glyph-name="O" unicode="O" horiz-adv-x="1012" 
d="M972 478q0 -198 -157 -345q-155 -142 -354 -142q-174 0 -295 117t-121 290q0 199 157 344q153 144 353 144q174 0 295.5 -117.5t121.5 -290.5zM821 431q0 138 -90 241q-94 106 -230 106q-133 0 -227 -108q-88 -104 -88 -239q0 -137 92 -240q93 -105 229 -105
q133 0 225 108q89 102 89 237z" />
    <glyph glyph-name="P" unicode="P" horiz-adv-x="754" 
d="M740 602q0 -170 -208 -275q-146 -75 -358 -104q2 -16 14 -86q11 -52 11 -86q0 -22 -31 -39q-26 -14 -51 -14t-37.5 16.5t-20.5 508.5q-17 23 -17 58q0 53 96 143q152 140 314 140q113 0 198 -73q90 -77 90 -189zM611 571q0 72 -76 119q-68 42 -144 42q-111 0 -227 -116
q-3 -62 -3 -127q0 -74 4 -150q300 9 387 104q59 66 59 128z" />
    <glyph glyph-name="Q" unicode="Q" horiz-adv-x="992" 
d="M954 481q0 -187 -141 -333q48 -20 56 -24q39 -21 39 -39q0 -14 -19 -26t-34 -12q-21 0 -117 39q-131 -92 -292 -92q-179 0 -297.5 112t-118.5 290q0 200 153.5 344.5t354.5 144.5q174 0 295 -115.5t121 -288.5zM806 430q0 134 -88 239q-93 108 -225 108q-138 0 -233 -105
q-91 -102 -91 -241q0 -138 89 -238q93 -105 229 -105q79 0 151 42q-98 48 -167 103q-98 82 -98 157q0 22 11 49q13 34 31 34q8 0 24 -15l136 -134q80 -75 149 -120q82 98 82 226z" />
    <glyph glyph-name="R" unicode="R" horiz-adv-x="777" 
d="M759 598q0 -140 -150 -239q-111 -72 -278 -109q148 -85 253 -111q12 -2 36 -8q22 -9 22 -26t-18 -31.5t-36 -14.5q-68 0 -190 38q-112 34 -183 71q1 -16 10 -58q8 -37 8 -60t-28 -38q-23 -12 -49 -12q-32 0 -42 20q-14 27 -21 495q-21 5 -37 27.5t-16 44.5q0 24 27 58
q172 216 384 216q120 0 211 -69q97 -76 97 -194zM639 577q0 70 -74 118q-65 41 -141 41q-111 0 -226 -115q-3 -63 -3 -127q0 -75 4 -151q294 8 381 103q59 66 59 131z" />
    <glyph glyph-name="S" unicode="S" horiz-adv-x="901" 
d="M854 430q0 -27 -6 -45q-50 -167 -220 -277q-163 -107 -342 -107q-68 0 -104 22q-51 30 -89 94.5t-38 123.5q0 47 26 47q25 0 46 -30q16 -25 32 -49q66 -89 225 -89q97 0 176 39q90 44 123 126q11 28 11 47q0 28 -32 41q-82 31 -251 41q-131 5 -261 11q-47 4 -65 24
t-18 66q0 54 88 154q190 216 477 216q33 0 46.5 -8t16.5 -37q2 -15 12 -58q8 -37 8 -58q0 -22 -35 -44.5t-58 -22.5q-22 0 -43 82q-17 1 -34 1q-189 0 -301 -144q-20 -25 -20 -34q0 -13 118 -10h-2q92 0 246 -12q183 -15 232 -33q36 -13 36 -77z" />
    <glyph glyph-name="T" unicode="T" horiz-adv-x="636" 
d="M639 768q0 -12 -6 -19q-13 -17 -69 -20q-108 -5 -204 -13q-8 -122 -8 -231q0 -188 25 -340q14 -86 14 -92q0 -20 -32 -36q-27 -13 -51 -13q-27 0 -37 21q-15 37 -22 668q-46 -17 -93 -34q-68 -24 -88 -24q-29 0 -48 29q-16 25 -16 56q0 53 44 75q151 71 389 71
q73 0 111 -10q62 -17 85 -65q6 -13 6 -23z" />
    <glyph glyph-name="U" unicode="U" horiz-adv-x="794" 
d="M725 77q0 -25 -27 -40t-54 -15q-31 0 -40 22q-3 7 -6 134q-86 -49 -227 -99q-157 -55 -233 -55q-54 0 -54 59q0 7 1 25q1 16 0 25v12q-1 77 -11 275q-8 174 -8 274q0 79 12 106q20 43 90 43q41 0 41 -29q0 4 -12 -107q-14 -122 -14 -346q0 -168 17 -183q6 -5 19 -5
q47 0 187 56q110 45 186 84q-11 234 -11 385q0 72 12 100q20 46 84 46q47 0 47 -30q0 -28 -5 -70q-8 -62 -9 -69q-12 -118 -12 -271q0 -107 15 -221q12 -97 12 -106z" />
    <glyph glyph-name="V" unicode="V" horiz-adv-x="642" 
d="M629 766q0 -12 -26 -63q-16 -33 -34 -66q-104 -220 -154 -479q-3 -40 -21 -111q-13 -31 -73 -31q-59 0 -79 32q-16 24 -120.5 373t-104.5 378q0 50 73 50q33 0 47 -57q7 -43 14 -85q44 -244 147 -498q31 87 92 261q25 73 49 144q33 94 57.5 138.5t75.5 44.5q18 0 34 -6
q23 -10 23 -25z" />
    <glyph glyph-name="W" unicode="W" horiz-adv-x="998" 
d="M980 776q0 -8 -43 -108q-52 -123 -101 -292l-79 -298q-15 -53 -55 -53q-17 0 -29 28q-6 14 -41 138q-21 72 -62 176q-34 86 -69 172q-95 -268 -166 -523q-14 -52 -55 -52q-19 0 -29 26.5t-19 67.5q-8 34 -15 68q-86 342 -154 514q-43 110 -43 114q0 24 27.5 54.5
t51.5 30.5q12 0 20 -11q18 -24 80 -256q29 -113 92 -311q43 147 144 412q39 101 82 101q19 0 32 -31q3 -7 14 -48q6 -22 62 -172q41 -111 78 -228q36 117 159 498q6 23 24 66q11 20 24 20q24 0 47 -41q23 -37 23 -62z" />
    <glyph glyph-name="X" unicode="X" horiz-adv-x="726" 
d="M684 806q0 -9 -5 -18q0 -1 -47 -62q-100 -131 -206 -301q49 -61 71 -88q40 -48 75 -83q28 -24 76 -76q9 -12 9 -30q0 -25 -17 -57q-20 -35 -44 -35q-8 0 -16 6q-25 19 -55 60q-24 33 -48 65q-37 46 -109 141q-73 -124 -113 -210q-12 -33 -43 -93q-15 -24 -48 -24
q-25 0 -48 12q-28 16 -28 38q0 16 206 374q-62 77 -123 153q-72 91 -112 160q-14 25 -14 52q0 25 14 51q17 30 41 30q13 0 25 -13q16 -16 35 -50l30 -54q76 -120 160 -231q45 80 90 159q55 93 100 154q22 29 59 29q29 0 54 -15q31 -17 31 -44z" />
    <glyph glyph-name="Y" unicode="Y" horiz-adv-x="751" 
d="M767 808q0 -13 -46 -75q-30 -39 -59 -78q-196 -268 -312 -512q-18 -44 -38 -89q-28 -51 -71 -51q-23 0 -44 13q-26 17 -26 37q0 6 152 281l-141 185q-51 64 -145 196q-17 26 -17 49q0 21 19.5 53.5t40.5 32.5q10 0 22 -15q4 -6 46 -74q102 -167 231 -329q22 39 170 288
q22 41 73 118q23 29 60 29q28 0 54 -15q31 -18 31 -44z" />
    <glyph glyph-name="Z" unicode="Z" horiz-adv-x="788" 
d="M770 128q0 -22 -20.5 -41t-42.5 -28q-133 -46 -414 -46q-117 0 -152 5q-104 17 -104 79q0 16 10 35.5t33 46.5q18 22 38 44q129 165 392 492q-26 1 -50 1q-147 0 -298 -34q-11 -2 -20 -2q-30 0 -48 20.5t-18 51.5q0 14 6 29q16 41 150 63q91 13 176 13q97 0 175 -16
q129 -26 129 -87q0 -21 -20 -47q-16 -22 -47 -51q-45 -41 -50 -46q-225 -227 -391 -475q50 -4 106 -4q98 0 375 27q22 2 33 2q52 0 52 -32z" />
    <glyph glyph-name="bracketleft" unicode="[" horiz-adv-x="579" 
d="M520 945q0 -25 -9 -51q-12 -33 -33 -33q-28 0 -89 15.5t-97 15.5q-38 0 -104 -8q-19 -229 -19 -428q0 -78 13 -232.5t13 -232.5q61 -6 96 -6q37 0 98 14t89 14q20 0 33 -31q9 -25 9 -49q0 -28 -16 -38q-20 -12 -220 -12h-81q-55 1 -81 1t-41 29q-12 25 -12 52q0 15 4 26
q-22 502 -22 707q0 223 17 258t52 35q27 0 82 1h82q200 0 220 -11q16 -9 16 -36z" />
    <glyph glyph-name="backslash" unicode="\" horiz-adv-x="724" 
d="M708 40q0 -18 -30 -32q-24 -10 -44 -10q-35 0 -54 26q-16 19 -33 54q-26 50 -29 57q-166 290 -435 611q-16 19 -33 38q-19 26 -19 43q0 24 28 39q25 13 51 13q38 0 69 -32q21 -22 45 -60q21 -31 41 -63q111 -163 359 -545q23 -36 47 -70q37 -56 37 -69z" />
    <glyph glyph-name="bracketright" unicode="]" horiz-adv-x="608" 
d="M536 726q0 -152 -15 -484q-8 -204 -8 -245q0 -7 1 -21.5t1 -21.5q0 -23 -12 -44q-16 -26 -37 -26h-78q-53 -1 -79 -1q-210 0 -226 11t-16 40q0 25 9 49q12 30 32 30q28 0 89 -14t99 -14q36 0 95 6q0 77 12.5 229.5t12.5 229.5q0 202 -19 434q-65 8 -103 8
q-37 0 -97.5 -15.5t-88.5 -15.5q-20 0 -32 32q-9 23 -9 48q0 31 16.5 41t220.5 10h81q54 -1 81 -1q36 0 53 -34.5t17 -230.5z" />
    <glyph glyph-name="asciicircum" unicode="^" horiz-adv-x="449" 
d="M403 728q0 -11 -10.5 -26.5t-25.5 -15.5q-16 0 -33 29q-52 86 -119 150q-10 -14 -99 -145q-21 -31 -40 -31q-11 0 -26.5 9.5t-15.5 22.5q0 10 17 31q87 101 117 172q14 34 37 34q9 0 24 -7.5t19 -17.5q25 -30 122 -150q33 -42 33 -55z" />
    <glyph glyph-name="underscore" unicode="_" horiz-adv-x="833" 
d="M805 -81q0 -30 -29 -37q-7 -2 -75 -4q-114 -4 -199 -4h-129q-161 0 -246 7t-85 87q0 33 34 33q44 0 183 -13q108 -11 200 -11q61 0 191 16q78 9 86 9q30 0 49.5 -26t19.5 -57z" />
    <glyph glyph-name="grave" unicode="`" horiz-adv-x="396" 
d="M367 711q-5 -21 -19 -35q-15 -18 -35 -13q-17 3 -43 23q-29 22 -104 67q-69 42 -103 69q-27 23 -20 60q4 23 22 42q18 22 39 18q14 -3 120 -86q101 -79 124 -101.5t19 -43.5z" />
    <glyph glyph-name="a" unicode="a" 
d="M798 101q0 -25 -28 -48t-54 -23q-27 0 -54 55q-17 40 -33 80q-190 -46 -474 -98q-35 -84 -63 -84q-29 0 -54.5 33.5t-25.5 63.5q0 16 27 58q18 30 38 59q71 122 142 304q59 156 117 314q20 53 79 53q27 0 43 -27q13 -24 26 -66q22 -64 23 -68q106 -284 227 -489
q19 -30 37 -58q27 -45 27 -59zM573 294q-54 131 -166 392q-43 -98 -193 -483q198 31 359 91z" />
    <glyph glyph-name="b" unicode="b" horiz-adv-x="825" 
d="M762 203q0 -104 -180 -164q-110 -37 -337 -37q-52 0 -70 2q-44 6 -59.5 30t-23.5 466q-4 -1 -8 -1q-22 0 -35 26q-10 21 -10 45q0 54 77 137q65 69 126 105q86 50 192 50q123 0 201 -62q84 -68 84 -188q0 -122 -160 -217q75 -21 132 -68q71 -58 71 -124zM620 601
q0 65 -72 102q-59 31 -129 31q-110 0 -222 -114q-2 -61 -2 -125q0 -46 1 -95q286 8 368 92q56 56 56 109zM662 201q0 51 -112 83q-86 25 -156 25q-106 0 -190 -62q6 -64 14 -119q113 -8 194 -8q157 0 205 30q45 26 45 51z" />
    <glyph glyph-name="c" unicode="c" horiz-adv-x="805" 
d="M782 249q0 -21 -29 -45q-25 -17 -48 -33q-235 -165 -412 -165q-122 0 -192 86q-64 79 -64 204q0 240 187 406q180 161 423 161q47 0 58 -17q6 -10 6 -61q0 -18 11 -53t11 -52q0 -26 -31.5 -50t-58.5 -24q-21 0 -35 46q-7 32 -14 65q-232 -36 -352 -173
q-108 -123 -108 -235q0 -78 65 -127q58 -44 139 -44q73 0 176 42q64 26 159 78q77 42 86 42q23 0 23 -51z" />
    <glyph glyph-name="d" unicode="d" horiz-adv-x="856" 
d="M831 509q0 -188 -185 -322q-147 -107 -359 -149q-37 -6 -110 -21l-58 -14q-17 0 -26.5 19t-19.5 507q-19 23 -19 55q0 29 21 58q10 13 44 46q175 169 369 169q143 0 243 -102.5t100 -245.5zM697 475q0 107 -78 180.5t-185 73.5q-133 0 -257 -117q-4 -70 -4 -140
q0 -173 26 -334q187 18 319 85q179 92 179 252z" />
    <glyph glyph-name="e" unicode="e" horiz-adv-x="770" 
d="M748 506q0 -27 -68 -35q-332 -38 -506 -96q4 -127 23 -246q94 0 216 24q107 23 214 47q18 4 30 4q41 0 41 -35q0 -23 -15.5 -47.5t-35.5 -35.5q-84 -48 -229 -75q-124 -21 -244 -21q-61 0 -81 33q-12 21 -20 328q-42 15 -42 64q0 45 38 60h1q-7 102 -7 215q0 49 2 52
q4 29 24 44q10 9 51 21q65 20 129 41q75 20 134 20h42q55 1 76 -4q37 -8 63.5 -38t26.5 -55q0 -34 -61 -39q-151 -13 -191 -20q-79 -15 -183 -59q-5 -69 -5 -146q238 70 429 70q37 0 58 -4q26 -3 56 -22q34 -23 34 -45z" />
    <glyph glyph-name="f" unicode="f" horiz-adv-x="710" 
d="M693 503q0 -8 -4 -15q-11 -15 -58 -20q-294 -34 -464 -93q2 -65 15 -159q6 -39 14 -78q7 -47 7 -79q0 -25 -30 -42q-25 -13 -52 -13q-30 0 -39 21t-15 323q-42 11 -42 67q0 49 38 58q-6 165 -6 211q0 48 1 54q4 30 25 45q10 9 51 21q130 40 149 45q71 16 156 16
q56 0 76 -4q37 -8 63.5 -37.5t26.5 -54.5q0 -35 -62 -40q-147 -12 -190 -20q-81 -15 -184 -59q-4 -73 -4 -143q217 66 393 66q33 0 52 -3q25 -4 54 -24.5t29 -42.5z" />
    <glyph glyph-name="g" unicode="g" horiz-adv-x="915" 
d="M867 388q0 -79 -135 -188q-246 -200 -441 -200q-128 0 -198 87q-64 80 -64 211q0 237 188 401q180 159 421 159q44 0 56 -15q7 -9 7 -58q0 -20 12 -58.5t12 -58.5q0 -21 -34 -44t-56 -23q-20 0 -35 47q-3 10 -15 65q-205 -32 -324 -146q-55 -53 -93 -120
q-43 -76 -43 -142q0 -76 55.5 -122.5t131.5 -46.5q92 0 222 50.5t191 113.5q25 26 25 40q0 37 -90 37q-87 0 -281 -39q-33 -7 -65 -15q-42 -10 -65 -10q-30 0 -30 30q0 26 26 58q22 29 48 42q39 21 160 34q97 11 165 11q249 0 249 -100z" />
    <glyph glyph-name="h" unicode="h" horiz-adv-x="780" 
d="M769 497q0 -36 -81 -36q0 -174 12 -270q1 -5 9 -47q5 -28 5 -48q0 -24 -27.5 -39t-52.5 -15q-33 0 -41 24t-8 77q1 -107 1 82q0 43 -4 111q-4 91 -5 111q-209 -28 -374 -90q7 -131 19 -210q16 -91 16 -100q0 -20 -32 -36q-28 -13 -51 -13q-29 0 -37 20q-6 17 -7 55
q0 28 -1 57q-11 152 -22 303q-13 181 -13 304q0 37 28 61q26 21 65 21q45 0 45 -35q0 -2 -6 -87q-7 -99 -7 -207q186 61 373 71l-2 177q0 79 25 101q29 24 79 24q39 0 38 -29v0v-1l-1 -6l-1 -17l-9 -68q-8 -85 -12 -180q26 -6 49 -23q30 -21 30 -42z" />
    <glyph glyph-name="i" unicode="i" horiz-adv-x="297" 
d="M222 71q0 -22 -31 -37q-26 -12 -51 -12q-44 0 -44 66v25q1 15 1 22l-1 18q-1 76 -9 301q-6 187 -6 300q0 88 100 88q40 0 40 -28t-5 -70q-8 -61 -9 -69q-11 -119 -11 -240q0 -154 13 -264q1 -6 8 -50q5 -30 5 -50z" />
    <glyph glyph-name="j" unicode="j" horiz-adv-x="888" 
d="M826 630q0 -184 -50 -346q-37 -121 -132 -195t-220 -74q-157 0 -263 128q-101 121 -101 281q0 56 63 56q36 0 46 -64q24 -143 91 -203q82 -73 184 -73q86 0 151 45q69 47 87 128q13 59 13 155q0 214 -30 258q-12 16 -48 16q-35 0 -103.5 -15.5t-93.5 -15.5q-23 0 -23 29
q0 74 52 96q71 29 226 29q83 0 109 -21q20 -16 28 -49q14 -57 14 -165z" />
    <glyph glyph-name="k" unicode="k" horiz-adv-x="786" 
d="M745 785q0 -14 -44 -52q-16 -14 -215 -199q-128 -120 -197 -189q177 -135 358 -213q24 -9 47 -18q35 -16 35 -27q0 -20 -43 -39q-37 -16 -61 -16q-22 0 -224 70q-118 42 -200 107q16 -119 16 -132q0 -25 -28 -42q-24 -13 -51 -13q-30 0 -40 21q-7 14 -15 322
q-7 270 -7 358q0 47 1 54q6 31 34 48.5t61 17.5q44 0 44 -29q0 -26 -5 -65q-7 -59 -8 -65q-12 -117 -12 -254l2 -2l2 -1q397 373 450 388q18 5 38 5q62 0 62 -35z" />
    <glyph glyph-name="l" unicode="l" horiz-adv-x="702" 
d="M696 196q0 -51 -51 -82q-67 -41 -218 -72q-136 -28 -230 -28q-87 0 -106 36q-12 23 -21 308q-9 231 -9 339q0 71 9 94q16 45 74 45q39 0 39 -28q0 5 -8 -109q-7 -99 -7 -190q0 -195 27 -352q105 0 197 16q19 3 136 33q101 25 126 25q42 0 42 -35z" />
    <glyph glyph-name="m" unicode="m" horiz-adv-x="976" 
d="M975 108q0 -25 -26.5 -54.5t-51.5 -29.5q-12 0 -20 10q-13 15 -85 264q-43 152 -87 302q-46 -160 -92 -319q-74 -264 -86 -278q-14 -18 -27 -18q-25 0 -46 39q-19 35 -19 67q0 6 1 11q-23 72 -144 465q-41 -135 -153 -481q-7 -29 -29 -83q-12 -19 -25 -19q-23 0 -46 40
q-23 36 -23 61q0 14 18 53q12 27 24 53q54 124 101 294l80 298q15 54 55 54q22 0 38 -51q8 -34 16 -69q44 -181 151 -457q59 167 115 393q15 65 46 192q15 53 55 53q25 0 44 -70q10 -47 19 -93q73 -310 151 -506q46 -116 46 -121z" />
    <glyph glyph-name="n" unicode="n" horiz-adv-x="834" 
d="M786 839q0 -9 -9 -58q-40 -211 -40 -453q0 -91 5 -154q1 -11 6 -41q4 -25 4 -41q0 -65 -87 -65q-37 0 -35 21l-453 512q-6 -97 -6 -185q0 -159 14 -263q1 -6 8 -40q5 -25 5 -41q0 -24 -30 -40q-26 -15 -51 -15q-32 0 -40 24q-5 12 -14 310q-9 276 -9 330q0 90 8 110
q18 47 93 47q26 0 38 -14l441 -513q1 34 12 272q3 68 5 138q4 81 13 137q8 61 87 61q35 0 35 -39z" />
    <glyph glyph-name="o" unicode="o" horiz-adv-x="1012" 
d="M972 478q0 -198 -157 -345q-155 -142 -354 -142q-174 0 -295 117t-121 290q0 199 157 344q153 144 353 144q174 0 295.5 -117.5t121.5 -290.5zM821 431q0 138 -90 241q-94 106 -230 106q-133 0 -227 -108q-88 -104 -88 -239q0 -137 92 -240q93 -105 229 -105
q133 0 225 108q89 102 89 237z" />
    <glyph glyph-name="p" unicode="p" horiz-adv-x="754" 
d="M740 602q0 -170 -208 -275q-146 -75 -358 -104q2 -16 14 -86q11 -52 11 -86q0 -22 -31 -39q-26 -14 -51 -14t-37.5 16.5t-20.5 508.5q-17 23 -17 58q0 53 96 143q152 140 314 140q113 0 198 -73q90 -77 90 -189zM611 571q0 72 -76 119q-68 42 -144 42q-111 0 -227 -116
q-3 -62 -3 -127q0 -74 4 -150q300 9 387 104q59 66 59 128z" />
    <glyph glyph-name="q" unicode="q" horiz-adv-x="992" 
d="M954 481q0 -187 -141 -333q48 -20 56 -24q39 -21 39 -39q0 -14 -19 -26t-34 -12q-21 0 -117 39q-131 -92 -292 -92q-179 0 -297.5 112t-118.5 290q0 200 153.5 344.5t354.5 144.5q174 0 295 -115.5t121 -288.5zM806 430q0 134 -88 239q-93 108 -225 108q-138 0 -233 -105
q-91 -102 -91 -241q0 -138 89 -238q93 -105 229 -105q79 0 151 42q-98 48 -167 103q-98 82 -98 157q0 22 11 49q13 34 31 34q8 0 24 -15l136 -134q80 -75 149 -120q82 98 82 226z" />
    <glyph glyph-name="r" unicode="r" horiz-adv-x="777" 
d="M759 598q0 -140 -150 -239q-111 -72 -278 -109q148 -85 253 -111q12 -2 36 -8q22 -9 22 -26t-18 -31.5t-36 -14.5q-68 0 -190 38q-112 34 -183 71q1 -16 10 -58q8 -37 8 -60t-28 -38q-23 -12 -49 -12q-32 0 -42 20q-14 27 -21 495q-21 5 -37 27.5t-16 44.5q0 24 27 58
q172 216 384 216q120 0 211 -69q97 -76 97 -194zM639 577q0 70 -74 118q-65 41 -141 41q-111 0 -226 -115q-3 -63 -3 -127q0 -75 4 -151q294 8 381 103q59 66 59 131z" />
    <glyph glyph-name="s" unicode="s" horiz-adv-x="901" 
d="M854 430q0 -27 -6 -45q-50 -167 -220 -277q-163 -107 -342 -107q-68 0 -104 22q-51 30 -89 94.5t-38 123.5q0 47 26 47q25 0 46 -30q16 -25 32 -49q66 -89 225 -89q97 0 176 39q90 44 123 126q11 28 11 47q0 28 -32 41q-82 31 -251 41q-131 5 -261 11q-47 4 -65 24
t-18 66q0 54 88 154q190 216 477 216q33 0 46.5 -8t16.5 -37q2 -15 12 -58q8 -37 8 -58q0 -22 -35 -44.5t-58 -22.5q-22 0 -43 82q-17 1 -34 1q-189 0 -301 -144q-20 -25 -20 -34q0 -13 118 -10h-2q92 0 246 -12q183 -15 232 -33q36 -13 36 -77z" />
    <glyph glyph-name="t" unicode="t" horiz-adv-x="636" 
d="M639 768q0 -12 -6 -19q-13 -17 -69 -20q-108 -5 -204 -13q-8 -122 -8 -231q0 -188 25 -340q14 -86 14 -92q0 -20 -32 -36q-27 -13 -51 -13q-27 0 -37 21q-15 37 -22 668q-46 -17 -93 -34q-68 -24 -88 -24q-29 0 -48 29q-16 25 -16 56q0 53 44 75q151 71 389 71
q73 0 111 -10q62 -17 85 -65q6 -13 6 -23z" />
    <glyph glyph-name="u" unicode="u" horiz-adv-x="794" 
d="M725 77q0 -25 -27 -40t-54 -15q-31 0 -40 22q-3 7 -6 134q-86 -49 -227 -99q-157 -55 -233 -55q-54 0 -54 59q0 7 1 25q1 16 0 25v12q-1 77 -11 275q-8 174 -8 274q0 79 12 106q20 43 90 43q41 0 41 -29q0 4 -12 -107q-14 -122 -14 -346q0 -168 17 -183q6 -5 19 -5
q47 0 187 56q110 45 186 84q-11 234 -11 385q0 72 12 100q20 46 84 46q47 0 47 -30q0 -28 -5 -70q-8 -62 -9 -69q-12 -118 -12 -271q0 -107 15 -221q12 -97 12 -106z" />
    <glyph glyph-name="v" unicode="v" horiz-adv-x="642" 
d="M629 766q0 -12 -26 -63q-16 -33 -34 -66q-104 -220 -154 -479q-3 -40 -21 -111q-13 -31 -73 -31q-59 0 -79 32q-16 24 -120.5 373t-104.5 378q0 50 73 50q33 0 47 -57q7 -43 14 -85q44 -244 147 -498q31 87 92 261q25 73 49 144q33 94 57.5 138.5t75.5 44.5q18 0 34 -6
q23 -10 23 -25z" />
    <glyph glyph-name="w" unicode="w" horiz-adv-x="998" 
d="M980 776q0 -8 -43 -108q-52 -123 -101 -292l-79 -298q-15 -53 -55 -53q-17 0 -29 28q-6 14 -41 138q-21 72 -62 176q-34 86 -69 172q-95 -268 -166 -523q-14 -52 -55 -52q-19 0 -29 26.5t-19 67.5q-8 34 -15 68q-86 342 -154 514q-43 110 -43 114q0 24 27.5 54.5
t51.5 30.5q12 0 20 -11q18 -24 80 -256q29 -113 92 -311q43 147 144 412q39 101 82 101q19 0 32 -31q3 -7 14 -48q6 -22 62 -172q41 -111 78 -228q36 117 159 498q6 23 24 66q11 20 24 20q24 0 47 -41q23 -37 23 -62z" />
    <glyph glyph-name="x" unicode="x" horiz-adv-x="726" 
d="M684 806q0 -9 -5 -18q0 -1 -47 -62q-100 -131 -206 -301q49 -61 71 -88q40 -48 75 -83q28 -24 76 -76q9 -12 9 -30q0 -25 -17 -57q-20 -35 -44 -35q-8 0 -16 6q-25 19 -55 60q-24 33 -48 65q-37 46 -109 141q-73 -124 -113 -210q-12 -33 -43 -93q-15 -24 -48 -24
q-25 0 -48 12q-28 16 -28 38q0 16 206 374q-62 77 -123 153q-72 91 -112 160q-14 25 -14 52q0 25 14 51q17 30 41 30q13 0 25 -13q16 -16 35 -50l30 -54q76 -120 160 -231q45 80 90 159q55 93 100 154q22 29 59 29q29 0 54 -15q31 -17 31 -44z" />
    <glyph glyph-name="y" unicode="y" horiz-adv-x="751" 
d="M767 808q0 -13 -46 -75q-30 -39 -59 -78q-196 -268 -312 -512q-18 -44 -38 -89q-28 -51 -71 -51q-23 0 -44 13q-26 17 -26 37q0 6 152 281l-141 185q-51 64 -145 196q-17 26 -17 49q0 21 19.5 53.5t40.5 32.5q10 0 22 -15q4 -6 46 -74q102 -167 231 -329q22 39 170 288
q22 41 73 118q23 29 60 29q28 0 54 -15q31 -18 31 -44z" />
    <glyph glyph-name="z" unicode="z" horiz-adv-x="788" 
d="M770 128q0 -22 -20.5 -41t-42.5 -28q-133 -46 -414 -46q-117 0 -152 5q-104 17 -104 79q0 16 10 35.5t33 46.5q18 22 38 44q129 165 392 492q-26 1 -50 1q-147 0 -298 -34q-11 -2 -20 -2q-30 0 -48 20.5t-18 51.5q0 14 6 29q16 41 150 63q91 13 176 13q97 0 175 -16
q129 -26 129 -87q0 -21 -20 -47q-16 -22 -47 -51q-45 -41 -50 -46q-225 -227 -391 -475q50 -4 106 -4q98 0 375 27q22 2 33 2q52 0 52 -32z" />
    <glyph glyph-name="braceleft" unicode="{" horiz-adv-x="910" 
d="M767 723q0 -23 -26.5 -54t-48.5 -31q-5 0 -66 49q-70 56 -74 59q-39 27 -142 66q-24 7 -63 25q-10 7 -10 19q0 24 26 50t50 26q19 0 175 -88q152 -87 174 -109q5 -5 5 -12zM663 468q0 -32 -15 -55q-16 -27 -46 -27q-1 0 -65 8q-103 14 -162 14q-72 0 -216 -19
q-88 -11 -102 -11q-32 0 -32 40q0 33 19 55.5t51 26.5q21 2 137 6q167 6 287 6q105 0 120 -5q24 -8 24 -39zM780 168q0 -12 -9 -21q-18 -8 -42 -19q-115 -54 -190 -131q-82 -83 -90 -83q-21 0 -39 31q-16 27 -16 50q0 19 15 35q23 24 159 126q141 103 155 103q19 0 39 -37
q18 -33 18 -54z" />
    <glyph glyph-name="bar" unicode="|" horiz-adv-x="311" 
d="M227 -35q0 -25 -27.5 -45.5t-55.5 -20.5q-29 0 -36 28q-7 23 -7 59q0 29 1 59l-1 18q-1 99 -9 387q-7 241 -7 386q0 123 100 123q41 0 41 -37q0 -35 -5 -91q-8 -75 -9 -89q-11 -158 -11 -310q0 -204 12 -331q1 -7 9 -67q5 -42 5 -69z" />
    <glyph glyph-name="braceright" unicode="}" horiz-adv-x="990" 
d="M546 849q0 -19 -15 -34q-22 -25 -158 -127q-141 -103 -157 -103q-19 0 -39 36q-16 31 -16 54q0 13 8 22q62 31 146 77q15 9 96 86q74 72 81 72q20 0 37 -33q17 -29 17 -50zM916 426q0 -70 -70 -81q-23 -3 -145 -8q-145 -5 -265 -5q-118 0 -133 6q-27 8 -27 38t14 53
q16 30 43 30q9 0 69 -8q107 -15 162 -15q81 0 216 18q96 12 103 12q33 0 33 -40zM603 -8q0 -25 -25.5 -52t-51.5 -27q-20 0 -172.5 87t-175.5 110q-6 6 -6 13q0 21 27 52.5t49 31.5q7 0 66 -49q70 -58 73 -60q45 -31 151 -69q19 -6 39 -14q26 -11 26 -23z" />
    <glyph glyph-name="asciitilde" unicode="~" horiz-adv-x="657" 
d="M608 485q0 -44 -54.5 -83.5t-100.5 -39.5q-42 0 -124.5 38.5t-117.5 38.5q-32 0 -72 -37.5t-51 -37.5q-17 0 -29 34q-9 28 -9 52q0 40 41 75q39 32 82 32q40 0 124.5 -37.5t131.5 -37.5q35 0 75 33q31 30 61 58q18 0 32 -35q11 -31 11 -53z" />
    <glyph glyph-name="dieresis" unicode="&#xa8;" horiz-adv-x="424" 
 />
    <glyph glyph-name="copyright" unicode="&#xa9;" horiz-adv-x="1010" 
d="M953 510q0 -129 -74 -256.5t-190 -206.5q-124 -84 -254 -84q-160 0 -270 111.5t-110 271.5q0 129 73.5 257t188.5 208q124 84 254 84q159 0 270.5 -112.5t111.5 -272.5zM818 443q0 128 -73 229q-79 110 -203 110q-81 0 -167 -50q-193 -112 -193 -332q0 -128 72 -228
q79 -111 203 -111q81 0 168 52q193 114 193 330zM714 362q-16 -70 -121 -122q-93 -46 -174 -46q-64 0 -104 29q-45 34 -45 95q0 84 98 222q82 115 184 115q50 0 93 -40q62 -56 62 -85q0 -17 -22 -29.5t-42 -12.5q-12 0 -45.5 28t-61.5 28q-46 0 -102.5 -54.5t-56.5 -99.5
q0 -51 41 -78q35 -22 89 -22q47 0 106.5 42t84.5 42q14 0 16 -12z" />
    <glyph glyph-name="registered" unicode="&#xae;" horiz-adv-x="1014" 
d="M957 510q0 -130 -75 -260q-74 -126 -193 -205q-125 -84 -256 -84q-154 0 -264 114.5t-110 270.5q0 129 73.5 257t189.5 208q123 84 253 84q160 0 271 -112.5t111 -272.5zM822 444q0 130 -73 229q-81 107 -207 107q-147 0 -253 -118q-103 -115 -103 -263q0 -127 73 -227
q80 -111 203 -111q81 0 167 52q193 114 193 331zM712 512q0 -83 -71 -132q-48 -34 -146 -59l150 -80q34 -19 34 -37q0 -11 -25 -11q-15 0 -31 6l-229 84q14 -79 14 -93q0 -13 -16 -20.5t-31 -7.5q-19 0 -25 13q-13 29 -13 326q-23 -33 -36 -33q-12 0 -22 16t-10 29
q0 18 39 60q95 104 200 104q85 0 146 -39q72 -45 72 -126zM640 501q0 46 -47 76q-42 26 -91 26q-56 0 -114 -41q-3 -51 -3 -102q0 -41 2 -82l12 -7q241 10 241 130z" />
    <glyph glyph-name="Agrave" unicode="&#xc0;" 
d="M798 101q0 -25 -28 -48t-54 -23q-27 0 -54 55q-17 40 -33 80q-190 -46 -474 -98q-35 -84 -63 -84q-29 0 -54.5 33.5t-25.5 63.5q0 16 27 58q18 30 38 59q71 122 142 304q59 156 117 314q5 13 12 24q-46 26 -131 87q-28 21 -20 58q4 24 21 42q19 23 40 18q14 -3 120 -86
q100 -77 123 -100t19 -45q-7 -35 -33 -46q88 -282 247 -549q19 -30 37 -58q27 -45 27 -59zM573 294q-54 131 -166 392q-43 -98 -193 -483q198 31 359 91z" />
    <glyph glyph-name="Aacute" unicode="&#xc1;" 
d="M798 101q0 -25 -28 -48t-54 -23q-27 0 -54 55q-17 40 -33 80q-190 -46 -474 -98q-35 -84 -63 -84q-29 0 -54.5 33.5t-25.5 63.5q0 16 27 58q18 30 38 59q69 118 137 289q55 151 112 301l-1 5q-6 21 18 44l9.5 9.5t16.5 12.5q190 159 218 165q20 4 40 -18q16 -20 21 -42
q7 -37 -20 -60q-23 -18 -153 -100q10 -33 32 -96q106 -284 227 -489q19 -30 37 -58q27 -45 27 -59zM573 294q-54 131 -166 392q-43 -98 -193 -483q198 31 359 91z" />
    <glyph glyph-name="Acircumflex" unicode="&#xc2;" 
d="M586 846q0 -12 -11 -26q-12 -16 -26 -16q-15 0 -33 27q-52 87 -120 152q-9 -14 -98 -146q-20 -30 -41 -30q-10 0 -25.5 9t-15.5 22q0 10 17 30q86 102 117 173q15 34 36 34q10 0 24.5 -7t19.5 -18q26 -29 122 -150q34 -41 34 -54zM798 101q0 -25 -28 -48t-54 -23
q-27 0 -54 55q-17 40 -33 80q-190 -46 -474 -98q-35 -84 -63 -84q-29 0 -54.5 33.5t-25.5 63.5q0 16 27 58q18 30 38 59q71 122 142 304q59 156 117 314q20 53 79 53q27 0 43 -27q13 -24 26 -66q22 -64 23 -68q106 -284 227 -489q19 -30 37 -58q27 -45 27 -59zM573 294
q-54 131 -166 392q-43 -98 -193 -483q198 31 359 91z" />
    <glyph glyph-name="Atilde" unicode="&#xc3;" 
d="M798 101q0 -25 -28 -48t-54 -23q-27 0 -54 55q-17 40 -33 80q-190 -46 -474 -98q-35 -84 -63 -84q-29 0 -54.5 33.5t-25.5 63.5q0 16 27 58q18 30 38 59q71 122 142 304q59 156 117 314q20 52 76 53q-59 28 -79 28t-44.5 -23.5t-30.5 -23.5q-11 0 -18 21q-6 18 -6 32
q0 25 24.5 45.5t50.5 20.5q25 0 76 -23t81 -23q20 0 45 20q18 17 38 35q10 0 17.5 -20t7.5 -33q0 -27 -33 -51t-62 -24q-13 0 -30 5q15 -18 33 -71q13 -38 25 -76q106 -284 227 -489q19 -30 37 -58q27 -45 27 -59zM573 294q-54 131 -166 392q-43 -98 -193 -483
q198 31 359 91z" />
    <glyph glyph-name="Adieresis" unicode="&#xc4;" 
d="M609 976q0 -11 -10 -58.5t-15 -58.5q-10 -20 -44 -20q-37 0 -37 25q0 69 7 107q3 22 54 22q45 0 45 -17zM340 983q0 -11 -10.5 -58t-15.5 -59q-9 -20 -44 -20q-37 0 -37 25q0 69 8 107q3 22 54 22q45 0 45 -17zM798 101q0 -25 -28 -48t-54 -23q-27 0 -54 55
q-17 40 -33 80q-190 -46 -474 -98q-35 -84 -63 -84q-29 0 -54.5 33.5t-25.5 63.5q0 16 27 58q18 30 38 59q71 122 142 304q59 156 117 314q20 53 79 53q27 0 43 -27q13 -24 26 -66q22 -64 23 -68q106 -284 227 -489q19 -30 37 -58q27 -45 27 -59zM573 294q-54 131 -166 392
q-43 -98 -193 -483q198 31 359 91z" />
    <glyph glyph-name="Aring" unicode="&#xc5;" 
d="M798 101q0 -25 -28 -48t-54 -23q-27 0 -54 55q-17 40 -33 80q-190 -46 -474 -98q-35 -84 -63 -84q-29 0 -54.5 33.5t-25.5 63.5q0 16 27 58q18 30 38 59q71 122 142 304q59 156 117 314q8 21 19 32q-42 22 -42 69q0 39 30 66.5t68 27.5q33 0 57 -22.5t24 -56.5
q0 -48 -43 -77q15 -17 32 -70q14 -39 26 -77q106 -284 227 -489q19 -30 37 -58q27 -45 27 -59zM450 923q0 21 -14 37t-35 16q-20 0 -34 -16.5t-14 -36.5q0 -22 14.5 -38t34.5 -16t34 16t14 38zM573 294q-54 131 -166 392q-43 -98 -193 -483q198 31 359 91z" />
    <glyph glyph-name="Egrave" unicode="&#xc8;" horiz-adv-x="770" 
d="M748 506q0 -27 -68 -35q-332 -38 -506 -96q4 -127 23 -246q94 0 216 24q107 23 214 47q18 4 30 4q41 0 41 -35q0 -23 -15.5 -47.5t-35.5 -35.5q-84 -48 -229 -75q-124 -21 -244 -21q-61 0 -81 33q-12 21 -20 328q-42 15 -42 64q0 45 38 60h1q-7 102 -7 215q0 49 2 52
q4 29 24 44q10 9 51 21q35 11 106 34q-43 25 -125 84q-28 21 -21 58q4 24 22 42q18 23 40 18q12 -2 102 -72q81 -63 128 -103h11h42q55 1 76 -4q37 -8 63.5 -38t26.5 -55q0 -34 -61 -39q-151 -13 -191 -20q-79 -15 -183 -59q-5 -69 -5 -146q238 70 429 70q37 0 58 -4
q26 -3 56 -22q34 -23 34 -45z" />
    <glyph glyph-name="Eacute" unicode="&#xc9;" horiz-adv-x="770" 
d="M748 506q0 -27 -68 -35q-332 -38 -506 -96q4 -127 23 -246q94 0 216 24q107 23 214 47q18 4 30 4q41 0 41 -35q0 -23 -15.5 -47.5t-35.5 -35.5q-84 -48 -229 -75q-124 -21 -244 -21q-61 0 -81 33q-12 21 -20 328q-42 15 -42 64q0 45 38 60h1q-7 102 -7 215q0 49 2 52
q4 29 24 44q10 9 51 21q24 7 71 22l2 4q23 22 124 101q105 83 120 85q20 4 40 -18q16 -19 21 -42q7 -36 -20 -59q-19 -15 -42 -32q47 1 69 -5q34 -9 60 -37q26 -30 26 -55q0 -34 -61 -39q-151 -13 -191 -20q-79 -15 -183 -59q-5 -69 -5 -146q238 70 429 70q37 0 58 -4
q26 -3 56 -22q34 -23 34 -45z" />
    <glyph glyph-name="Ecircumflex" unicode="&#xca;" horiz-adv-x="770" 
d="M748 506q0 -27 -68 -35q-332 -38 -506 -96q4 -127 23 -246q94 0 216 24q107 23 214 47q18 4 30 4q41 0 41 -35q0 -23 -15.5 -47.5t-35.5 -35.5q-84 -48 -229 -75q-124 -21 -244 -21q-61 0 -81 33q-12 21 -20 328q-42 15 -42 64q0 45 38 60h1q-7 102 -7 215q0 49 2 52
q4 29 24 44q10 9 51 21q11 3 24 7q-7 8 -7 16q0 11 17 31q87 102 117 172q14 35 37 35q9 0 24 -7.5t19 -18.5q25 -29 122 -149q8 -9 22 -28q41 -7 68.5 -38t27.5 -56q0 -34 -61 -39q-151 -13 -191 -20q-79 -15 -183 -59q-5 -69 -5 -146q238 70 429 70q37 0 58 -4
q26 -3 56 -22q34 -23 34 -45zM428 868q-42 60 -90 107q-17 -26 -91 -134q90 27 156 27h25z" />
    <glyph glyph-name="Edieresis" unicode="&#xcb;" horiz-adv-x="770" 
d="M553 1026q0 -11 -10.5 -58t-15.5 -59q-9 -20 -44 -20q-37 0 -37 25q0 69 8 107q3 22 54 22q45 0 45 -17zM284 1033q0 -11 -10.5 -58t-15.5 -59q-9 -20 -44 -20q-37 0 -37 26q0 68 7 106q3 23 55 23q45 0 45 -18zM748 506q0 -27 -68 -35q-332 -38 -506 -96q4 -127 23 -246
q94 0 216 24q107 23 214 47q18 4 30 4q41 0 41 -35q0 -23 -15.5 -47.5t-35.5 -35.5q-84 -48 -229 -75q-124 -21 -244 -21q-61 0 -81 33q-12 21 -20 328q-42 15 -42 64q0 45 38 60h1q-7 102 -7 215q0 49 2 52q4 29 24 44q10 9 51 21q65 20 129 41q75 20 134 20h42q55 1 76 -4
q37 -8 63.5 -38t26.5 -55q0 -34 -61 -39q-151 -13 -191 -20q-79 -15 -183 -59q-5 -69 -5 -146q238 70 429 70q37 0 58 -4q26 -3 56 -22q34 -23 34 -45z" />
    <glyph glyph-name="Igrave" unicode="&#xcc;" horiz-adv-x="623" 
d="M581 777q0 -12 -4 -18q-11 -17 -58 -20q-101 -7 -178 -14q-9 -116 -9 -225q0 -190 27 -363q7 1 94 27q58 16 95 16q30 0 30 -24q0 -19 -15 -43t-32 -34q-60 -37 -185 -61q-109 -21 -196 -21q-48 0 -69 11q-30 16 -30 59q0 53 68 53q10 0 30 -1.5t28 -1.5q39 0 69 3
q-14 191 -18 574q-111 -49 -128 -49q-25 0 -40 32q-11 24 -11 53q0 53 37 75q46 26 104 43q-62 39 -71 47q-40 34 -33 71q4 23 22 42q18 22 39 18q24 -4 202 -152q26 3 50 3q70 0 104 -11q55 -16 74 -65q4 -11 4 -24z" />
    <glyph glyph-name="Iacute" unicode="&#xcd;" horiz-adv-x="623" 
d="M581 777q0 -12 -4 -18q-11 -17 -58 -20q-101 -7 -178 -14q-9 -116 -9 -225q0 -190 27 -363q7 1 94 27q58 16 95 16q30 0 30 -24q0 -19 -15 -43t-32 -34q-60 -37 -185 -61q-109 -21 -196 -21q-48 0 -69 11q-30 16 -30 59q0 53 68 53q10 0 30 -1.5t28 -1.5q39 0 69 3
q-14 191 -18 574q-111 -49 -128 -49q-25 0 -40 32q-11 24 -11 53q0 53 36.5 74t79.5 36q3 13 18 28q24 23 124 102q106 83 120 85q20 4 40 -18q16 -19 21 -42q8 -38 -33 -71q-10 -9 -73 -47h17q70 0 104 -11q55 -16 74 -65q4 -11 4 -24z" />
    <glyph glyph-name="Icircumflex" unicode="&#xce;" horiz-adv-x="623" 
d="M581 777q0 -12 -4 -18q-11 -17 -58 -20q-101 -7 -178 -14q-9 -116 -9 -225q0 -190 27 -363q7 1 94 27q58 16 95 16q30 0 30 -24q0 -19 -15 -43t-32 -34q-60 -37 -185 -61q-109 -21 -196 -21q-48 0 -69 11q-30 16 -30 59q0 53 68 53q10 0 30 -1.5t28 -1.5q39 0 69 3
q-14 191 -18 574q-111 -49 -128 -49q-25 0 -40 32q-11 24 -11 53q0 53 37 75q18 10 38 19q-1 3 -1 7q0 11 17 31q86 102 117 173q14 34 36 34q10 0 24.5 -7t19.5 -19q25 -28 122 -149q6 -7 18 -22q77 -13 100 -71q4 -11 4 -24zM389 877q-40 55 -86 99q-20 -32 -81 -120
q80 20 167 21z" />
    <glyph glyph-name="Idieresis" unicode="&#xcf;" horiz-adv-x="623" 
d="M489 1038q0 -12 -10 -59t-15 -57q-9 -21 -43 -21q-38 0 -38 25q0 68 7 107q4 23 54 23q45 0 45 -18zM220 1046q0 -13 -10 -60t-15 -57q-10 -21 -43 -21q-38 0 -38 25q0 68 7 107q4 23 54 23q45 0 45 -17zM581 777q0 -12 -4 -18q-11 -17 -58 -20q-101 -7 -178 -14
q-9 -116 -9 -225q0 -190 27 -363q7 1 94 27q58 16 95 16q30 0 30 -24q0 -19 -15 -43t-32 -34q-60 -37 -185 -61q-109 -21 -196 -21q-48 0 -69 11q-30 16 -30 59q0 53 68 53q10 0 30 -1.5t28 -1.5q39 0 69 3q-14 191 -18 574q-111 -49 -128 -49q-25 0 -40 32q-11 24 -11 53
q0 53 37 75q126 72 313 72q70 0 104 -11q55 -16 74 -65q4 -11 4 -24z" />
    <glyph glyph-name="Ntilde" unicode="&#xd1;" horiz-adv-x="834" 
d="M594 882q0 -27 -33.5 -51t-61.5 -24q-25 0 -75.5 23.5t-71.5 23.5q-19 0 -43.5 -23.5t-30.5 -23.5q-12 0 -19 21q-5 18 -5 32q0 25 24 45.5t51 20.5q24 0 75.5 -23t80.5 -23q21 0 45 20q19 18 38 35q11 0 18.5 -20t7.5 -33zM786 839q0 -9 -9 -58q-40 -211 -40 -453
q0 -91 5 -154q1 -11 6 -41q4 -25 4 -41q0 -65 -87 -65q-37 0 -35 21l-453 512q-6 -97 -6 -185q0 -159 14 -263q1 -6 8 -40q5 -25 5 -41q0 -24 -30 -40q-26 -15 -51 -15q-32 0 -40 24q-5 12 -14 310q-9 276 -9 330q0 90 8 110q18 47 93 47q26 0 38 -14l441 -513q1 34 12 272
q3 68 5 138q4 81 13 137q8 61 87 61q35 0 35 -39z" />
    <glyph glyph-name="Ograve" unicode="&#xd2;" horiz-adv-x="1012" 
d="M972 478q0 -198 -157 -345q-155 -142 -354 -142q-174 0 -295 117t-121 290q0 161 108 293q104 126 261 173q-43 26 -125 84q-28 22 -21 59q4 23 22 42q18 22 40 18q13 -2 110 -79q90 -69 127 -103q170 -4 287.5 -120.5t117.5 -286.5zM821 431q0 138 -90 241
q-94 106 -230 106q-133 0 -227 -108q-88 -104 -88 -239q0 -137 92 -240q93 -105 229 -105q133 0 225 108q89 102 89 237z" />
    <glyph glyph-name="Oacute" unicode="&#xd3;" horiz-adv-x="1012" 
d="M972 478q0 -198 -157 -345q-155 -142 -354 -142q-174 0 -295 117t-121 290q0 158 105 288q100 125 252 175q4 13 19 29q23 22 124 101q105 83 120 85q20 4 40 -17q16 -20 21 -42q7 -37 -20 -60q-35 -28 -110 -73q160 -16 267 -128q109 -116 109 -278zM821 431
q0 138 -90 241q-94 106 -230 106q-133 0 -227 -108q-88 -104 -88 -239q0 -137 92 -240q93 -105 229 -105q133 0 225 108q89 102 89 237z" />
    <glyph glyph-name="Ocircumflex" unicode="&#xd4;" horiz-adv-x="1012" 
d="M972 478q0 -198 -157 -345q-155 -142 -354 -142q-174 0 -295 117t-121 290q0 132 75 248q71 110 189 174v5q0 11 18 31q86 101 116 173q15 34 36 34q10 0 24.5 -7t19.5 -19q26 -28 122 -149q4 -4 13 -15q138 -32 226 -140.5t88 -254.5zM564 885q-35 47 -75 86
q-22 -35 -70 -105q70 20 136 20zM821 431q0 138 -90 241q-94 106 -230 106q-133 0 -227 -108q-88 -104 -88 -239q0 -137 92 -240q93 -105 229 -105q133 0 225 108q89 102 89 237z" />
    <glyph glyph-name="Otilde" unicode="&#xd5;" horiz-adv-x="1012" 
d="M972 478q0 -198 -157 -345q-155 -142 -354 -142q-174 0 -295 117t-121 290q0 193 149 336q144 142 337 151q-67 30 -86 30t-43.5 -23.5t-30.5 -23.5q-12 0 -19 22q-5 17 -5 32q0 24 24 44.5t51 20.5q24 0 75.5 -23t81.5 -23q20 0 45 21q18 17 38 34q10 0 17.5 -20
t7.5 -33q0 -37 -55 -64q147 -26 242 -136q98 -112 98 -265zM821 431q0 138 -90 241q-94 106 -230 106q-133 0 -227 -108q-88 -104 -88 -239q0 -137 92 -240q93 -105 229 -105q133 0 225 108q89 102 89 237z" />
    <glyph glyph-name="Odieresis" unicode="&#xd6;" horiz-adv-x="1012" 
d="M726 1042q0 -11 -10 -58t-16 -58q-9 -21 -44 -21q-36 0 -36 26q0 68 7 106q3 23 54 23q45 0 45 -18zM457 1050q0 -12 -10.5 -59t-15.5 -58q-9 -21 -44 -21q-37 0 -37 26q0 69 7 106q3 23 55 23q45 0 45 -17zM972 478q0 -198 -157 -345q-155 -142 -354 -142
q-174 0 -295 117t-121 290q0 199 157 344q153 144 353 144q174 0 295.5 -117.5t121.5 -290.5zM821 431q0 138 -90 241q-94 106 -230 106q-133 0 -227 -108q-88 -104 -88 -239q0 -137 92 -240q93 -105 229 -105q133 0 225 108q89 102 89 237z" />
    <glyph glyph-name="Ugrave" unicode="&#xd9;" horiz-adv-x="794" 
d="M534 785q-5 -20 -19 -34q-15 -18 -35 -14q-17 3 -43 24q-29 21 -104 66q-69 42 -103 70q-27 23 -20 59q4 24 21 42q19 23 40 19q14 -3 120 -86q101 -79 124 -101.5t19 -44.5zM725 77q0 -25 -27 -40t-54 -15q-31 0 -40 22q-3 7 -6 134q-86 -49 -227 -99q-157 -55 -233 -55
q-54 0 -54 59q0 7 1 25q1 16 0 25v12q-1 77 -11 275q-8 174 -8 274q0 79 12 106q20 43 90 43q41 0 41 -29q0 4 -12 -107q-14 -122 -14 -346q0 -168 17 -183q6 -5 19 -5q47 0 187 56q110 45 186 84q-11 234 -11 385q0 72 12 100q20 46 84 46q47 0 47 -30q0 -28 -5 -70
q-8 -62 -9 -69q-12 -118 -12 -271q0 -107 15 -221q12 -97 12 -106z" />
    <glyph glyph-name="Uacute" unicode="&#xda;" horiz-adv-x="794" 
d="M620 961q7 -37 -21 -60q-34 -28 -102 -70q-75 -46 -105 -67q-25 -20 -43 -23q-19 -4 -34 12t-19 35q-4 23 19 45.5t123 101.5q106 83 120 85q21 4 40 -18q16 -19 22 -41zM725 77q0 -25 -27 -40t-54 -15q-31 0 -40 22q-3 7 -6 134q-86 -49 -227 -99q-157 -55 -233 -55
q-54 0 -54 59q0 7 1 25q1 16 0 25v12q-1 77 -11 275q-8 174 -8 274q0 79 12 106q20 43 90 43q41 0 41 -29q0 4 -12 -107q-14 -122 -14 -346q0 -168 17 -183q6 -5 19 -5q47 0 187 56q110 45 186 84q-11 234 -11 385q0 72 12 100q20 46 84 46q47 0 47 -30q0 -28 -5 -70
q-8 -62 -9 -69q-12 -118 -12 -271q0 -107 15 -221q12 -97 12 -106z" />
    <glyph glyph-name="Ucircumflex" unicode="&#xdb;" horiz-adv-x="794" 
d="M604 860q0 -11 -10.5 -26.5t-26.5 -15.5q-15 0 -32 29q-53 86 -119 150q-10 -14 -100 -145q-20 -31 -40 -31q-11 0 -26.5 9.5t-15.5 22.5q0 10 18 31q87 101 117 172q14 35 37 35q9 0 23.5 -8t19.5 -18q25 -30 121 -150q34 -42 34 -55zM725 77q0 -25 -27 -40t-54 -15
q-31 0 -40 22q-3 7 -6 134q-86 -49 -227 -99q-157 -55 -233 -55q-54 0 -54 59q0 7 1 25q1 16 0 25v12q-1 77 -11 275q-8 174 -8 274q0 79 12 106q20 43 90 43q41 0 41 -29q0 4 -12 -107q-14 -122 -14 -346q0 -168 17 -183q6 -5 19 -5q47 0 187 56q110 45 186 84
q-11 234 -11 385q0 72 12 100q20 46 84 46q47 0 47 -30q0 -28 -5 -70q-8 -62 -9 -69q-12 -118 -12 -271q0 -107 15 -221q12 -97 12 -106z" />
    <glyph glyph-name="Udieresis" unicode="&#xdc;" horiz-adv-x="794" 
d="M609 976q0 -11 -10 -58.5t-15 -58.5q-10 -20 -44 -20q-37 0 -37 25q0 69 7 107q3 22 54 22q45 0 45 -17zM371 983q0 -11 -10.5 -58t-15.5 -59q-9 -20 -44 -20q-37 0 -37 25q0 69 7 107q3 22 55 22q45 0 45 -17zM725 77q0 -25 -27 -40t-54 -15q-31 0 -40 22q-3 7 -6 134
q-86 -49 -227 -99q-157 -55 -233 -55q-54 0 -54 59q0 7 1 25q1 16 0 25v12q-1 77 -11 275q-8 174 -8 274q0 79 12 106q20 43 90 43q41 0 41 -29q0 4 -12 -107q-14 -122 -14 -346q0 -168 17 -183q6 -5 19 -5q47 0 187 56q110 45 186 84q-11 234 -11 385q0 72 12 100
q20 46 84 46q47 0 47 -30q0 -28 -5 -70q-8 -62 -9 -69q-12 -118 -12 -271q0 -107 15 -221q12 -97 12 -106z" />
    <glyph glyph-name="Yacute" unicode="&#xdd;" horiz-adv-x="751" 
d="M580 965q7 -37 -21 -60q-34 -27 -102 -69q-75 -46 -105 -68q-25 -19 -43 -23q-19 -4 -34 12t-19 36q-4 22 19 44.5t123 101.5q106 83 120 85q21 4 40 -17q16 -20 22 -42zM767 808q0 -13 -46 -75q-30 -39 -59 -78q-196 -268 -312 -512q-18 -44 -38 -89q-28 -51 -71 -51
q-23 0 -44 13q-26 17 -26 37q0 6 152 281l-141 185q-51 64 -145 196q-17 26 -17 49q0 21 19.5 53.5t40.5 32.5q10 0 22 -15q4 -6 46 -74q102 -167 231 -329q22 39 170 288q22 41 73 118q23 29 60 29q28 0 54 -15q31 -18 31 -44z" />
    <glyph glyph-name="agrave" unicode="&#xe0;" 
d="M798 101q0 -25 -28 -48t-54 -23q-27 0 -54 55q-17 40 -33 80q-190 -46 -474 -98q-35 -84 -63 -84q-29 0 -54.5 33.5t-25.5 63.5q0 16 27 58q18 30 38 59q71 122 142 304q59 156 117 314q5 13 12 24q-46 26 -131 87q-28 21 -20 58q4 24 21 42q19 23 40 18q14 -3 120 -86
q100 -77 123 -100t19 -45q-7 -35 -33 -46q88 -282 247 -549q19 -30 37 -58q27 -45 27 -59zM573 294q-54 131 -166 392q-43 -98 -193 -483q198 31 359 91z" />
    <glyph glyph-name="aacute" unicode="&#xe1;" 
d="M798 101q0 -25 -28 -48t-54 -23q-27 0 -54 55q-17 40 -33 80q-190 -46 -474 -98q-35 -84 -63 -84q-29 0 -54.5 33.5t-25.5 63.5q0 16 27 58q18 30 38 59q69 118 137 289q55 151 112 301l-1 5q-6 21 18 44l9.5 9.5t16.5 12.5q190 159 218 165q20 4 40 -18q16 -20 21 -42
q7 -37 -20 -60q-23 -18 -153 -100q10 -33 32 -96q106 -284 227 -489q19 -30 37 -58q27 -45 27 -59zM573 294q-54 131 -166 392q-43 -98 -193 -483q198 31 359 91z" />
    <glyph glyph-name="acircumflex" unicode="&#xe2;" 
d="M586 846q0 -12 -11 -26q-12 -16 -26 -16q-15 0 -33 27q-52 87 -120 152q-9 -14 -98 -146q-20 -30 -41 -30q-10 0 -25.5 9t-15.5 22q0 10 17 30q86 102 117 173q15 34 36 34q10 0 24.5 -7t19.5 -18q26 -29 122 -150q34 -41 34 -54zM798 101q0 -25 -28 -48t-54 -23
q-27 0 -54 55q-17 40 -33 80q-190 -46 -474 -98q-35 -84 -63 -84q-29 0 -54.5 33.5t-25.5 63.5q0 16 27 58q18 30 38 59q71 122 142 304q59 156 117 314q20 53 79 53q27 0 43 -27q13 -24 26 -66q22 -64 23 -68q106 -284 227 -489q19 -30 37 -58q27 -45 27 -59zM573 294
q-54 131 -166 392q-43 -98 -193 -483q198 31 359 91z" />
    <glyph glyph-name="atilde" unicode="&#xe3;" 
d="M798 101q0 -25 -28 -48t-54 -23q-27 0 -54 55q-17 40 -33 80q-190 -46 -474 -98q-35 -84 -63 -84q-29 0 -54.5 33.5t-25.5 63.5q0 16 27 58q18 30 38 59q71 122 142 304q59 156 117 314q20 52 76 53q-59 28 -79 28t-44.5 -23.5t-30.5 -23.5q-11 0 -18 21q-6 18 -6 32
q0 25 24.5 45.5t50.5 20.5q25 0 76 -23t81 -23q20 0 45 20q18 17 38 35q10 0 17.5 -20t7.5 -33q0 -27 -33 -51t-62 -24q-13 0 -30 5q15 -18 33 -71q13 -38 25 -76q106 -284 227 -489q19 -30 37 -58q27 -45 27 -59zM573 294q-54 131 -166 392q-43 -98 -193 -483
q198 31 359 91z" />
    <glyph glyph-name="adieresis" unicode="&#xe4;" 
d="M609 976q0 -11 -10 -58.5t-15 -58.5q-10 -20 -44 -20q-37 0 -37 25q0 69 7 107q3 22 54 22q45 0 45 -17zM340 983q0 -11 -10.5 -58t-15.5 -59q-9 -20 -44 -20q-37 0 -37 25q0 69 8 107q3 22 54 22q45 0 45 -17zM798 101q0 -25 -28 -48t-54 -23q-27 0 -54 55
q-17 40 -33 80q-190 -46 -474 -98q-35 -84 -63 -84q-29 0 -54.5 33.5t-25.5 63.5q0 16 27 58q18 30 38 59q71 122 142 304q59 156 117 314q20 53 79 53q27 0 43 -27q13 -24 26 -66q22 -64 23 -68q106 -284 227 -489q19 -30 37 -58q27 -45 27 -59zM573 294q-54 131 -166 392
q-43 -98 -193 -483q198 31 359 91z" />
    <glyph glyph-name="aring" unicode="&#xe5;" 
d="M798 101q0 -25 -28 -48t-54 -23q-27 0 -54 55q-17 40 -33 80q-190 -46 -474 -98q-35 -84 -63 -84q-29 0 -54.5 33.5t-25.5 63.5q0 16 27 58q18 30 38 59q71 122 142 304q59 156 117 314q8 21 19 32q-42 22 -42 69q0 39 30 66.5t68 27.5q33 0 57 -22.5t24 -56.5
q0 -48 -43 -77q15 -17 32 -70q14 -39 26 -77q106 -284 227 -489q19 -30 37 -58q27 -45 27 -59zM450 923q0 21 -14 37t-35 16q-20 0 -34 -16.5t-14 -36.5q0 -22 14.5 -38t34.5 -16t34 16t14 38zM573 294q-54 131 -166 392q-43 -98 -193 -483q198 31 359 91z" />
    <glyph glyph-name="egrave" unicode="&#xe8;" horiz-adv-x="770" 
d="M748 506q0 -27 -68 -35q-332 -38 -506 -96q4 -127 23 -246q94 0 216 24q107 23 214 47q18 4 30 4q41 0 41 -35q0 -23 -15.5 -47.5t-35.5 -35.5q-84 -48 -229 -75q-124 -21 -244 -21q-61 0 -81 33q-12 21 -20 328q-42 15 -42 64q0 45 38 60h1q-7 102 -7 215q0 49 2 52
q4 29 24 44q10 9 51 21q35 11 106 34q-43 25 -125 84q-28 21 -21 58q4 24 22 42q18 23 40 18q12 -2 102 -72q81 -63 128 -103h11h42q55 1 76 -4q37 -8 63.5 -38t26.5 -55q0 -34 -61 -39q-151 -13 -191 -20q-79 -15 -183 -59q-5 -69 -5 -146q238 70 429 70q37 0 58 -4
q26 -3 56 -22q34 -23 34 -45z" />
    <glyph glyph-name="eacute" unicode="&#xe9;" horiz-adv-x="770" 
d="M748 506q0 -27 -68 -35q-332 -38 -506 -96q4 -127 23 -246q94 0 216 24q107 23 214 47q18 4 30 4q41 0 41 -35q0 -23 -15.5 -47.5t-35.5 -35.5q-84 -48 -229 -75q-124 -21 -244 -21q-61 0 -81 33q-12 21 -20 328q-42 15 -42 64q0 45 38 60h1q-7 102 -7 215q0 49 2 52
q4 29 24 44q10 9 51 21q24 7 71 22l2 4q23 22 124 101q105 83 120 85q20 4 40 -18q16 -19 21 -42q7 -36 -20 -59q-19 -15 -42 -32q47 1 69 -5q34 -9 60 -37q26 -30 26 -55q0 -34 -61 -39q-151 -13 -191 -20q-79 -15 -183 -59q-5 -69 -5 -146q238 70 429 70q37 0 58 -4
q26 -3 56 -22q34 -23 34 -45z" />
    <glyph glyph-name="ecircumflex" unicode="&#xea;" horiz-adv-x="770" 
d="M748 506q0 -27 -68 -35q-332 -38 -506 -96q4 -127 23 -246q94 0 216 24q107 23 214 47q18 4 30 4q41 0 41 -35q0 -23 -15.5 -47.5t-35.5 -35.5q-84 -48 -229 -75q-124 -21 -244 -21q-61 0 -81 33q-12 21 -20 328q-42 15 -42 64q0 45 38 60h1q-7 102 -7 215q0 49 2 52
q4 29 24 44q10 9 51 21q11 3 24 7q-7 8 -7 16q0 11 17 31q87 102 117 172q14 35 37 35q9 0 24 -7.5t19 -18.5q25 -29 122 -149q8 -9 22 -28q41 -7 68.5 -38t27.5 -56q0 -34 -61 -39q-151 -13 -191 -20q-79 -15 -183 -59q-5 -69 -5 -146q238 70 429 70q37 0 58 -4
q26 -3 56 -22q34 -23 34 -45zM428 868q-42 60 -90 107q-17 -26 -91 -134q90 27 156 27h25z" />
    <glyph glyph-name="edieresis" unicode="&#xeb;" horiz-adv-x="770" 
d="M553 1026q0 -11 -10.5 -58t-15.5 -59q-9 -20 -44 -20q-37 0 -37 25q0 69 8 107q3 22 54 22q45 0 45 -17zM284 1033q0 -11 -10.5 -58t-15.5 -59q-9 -20 -44 -20q-37 0 -37 26q0 68 7 106q3 23 55 23q45 0 45 -18zM748 506q0 -27 -68 -35q-332 -38 -506 -96q4 -127 23 -246
q94 0 216 24q107 23 214 47q18 4 30 4q41 0 41 -35q0 -23 -15.5 -47.5t-35.5 -35.5q-84 -48 -229 -75q-124 -21 -244 -21q-61 0 -81 33q-12 21 -20 328q-42 15 -42 64q0 45 38 60h1q-7 102 -7 215q0 49 2 52q4 29 24 44q10 9 51 21q65 20 129 41q75 20 134 20h42q55 1 76 -4
q37 -8 63.5 -38t26.5 -55q0 -34 -61 -39q-151 -13 -191 -20q-79 -15 -183 -59q-5 -69 -5 -146q238 70 429 70q37 0 58 -4q26 -3 56 -22q34 -23 34 -45z" />
    <glyph glyph-name="igrave" unicode="&#xec;" horiz-adv-x="297" 
d="M233 816q-3 -15 -12 -29q-5 -37 -14 -112q-11 -119 -11 -240q0 -154 13 -264q1 -6 8 -50q5 -30 5 -50q0 -22 -31 -37q-26 -12 -51 -12q-44 0 -44 66v25q1 15 1 22l-1 18q-1 76 -9 300q-6 188 -6 301q0 39 21 61q-59 35 -172 114q-27 21 -20 58q4 24 21 42q19 23 40 19
q15 -4 120 -86q100 -78 123.5 -101t18.5 -45z" />
    <glyph glyph-name="iacute" unicode="&#xed;" horiz-adv-x="297" 
d="M410 970q7 -37 -20 -60q-32 -25 -83 -57q-43 -27 -86 -53q-5 -42 -14 -125q-11 -119 -11 -240q0 -154 13 -264q1 -6 8 -50q5 -30 5 -50q0 -22 -31 -37q-26 -12 -51 -12q-44 0 -44 66v25q1 15 1 22l-1 18q-1 76 -9 300q-6 188 -6 301q0 22 7 39q-1 3 -1 5q-5 22 18 44.5
t123 101.5q107 83 120 85q22 4 41 -17q17 -20 21 -42z" />
    <glyph glyph-name="icircumflex" unicode="&#xee;" horiz-adv-x="297" 
d="M334 813q0 -11 -11 -26.5t-26 -15.5t-33 29q-52 86 -119 150q-10 -14 -99 -145q-20 -31 -40 -31q-11 0 -26.5 9.5t-15.5 22.5q0 10 18 31q87 101 116 172q15 34 37 34q9 0 24 -7.5t19 -17.5q26 -30 122 -150q34 -42 34 -55zM222 71q0 -22 -31 -37q-26 -12 -51 -12
q-44 0 -44 66v25q1 15 1 22l-1 18q-1 76 -9 300q-6 188 -6 301q0 88 100 88q40 0 40 -28t-5 -70q-8 -61 -9 -69q-11 -119 -11 -240q0 -154 13 -264q1 -6 8 -50q5 -30 5 -50z" />
    <glyph glyph-name="idieresis" unicode="&#xef;" horiz-adv-x="297" 
d="M298 1010q0 -12 -10 -59t-16 -58q-9 -21 -44 -21q-37 0 -37 26q0 69 8 107q3 22 54 22q45 0 45 -17zM152 1017q0 -11 -10.5 -58.5t-15.5 -58.5q-9 -20 -44 -20q-37 0 -37 25q0 69 7 107q3 22 54 22q46 0 46 -17zM222 71q0 -22 -31 -37q-26 -12 -51 -12q-44 0 -44 66v25
q1 15 1 22l-1 18q-1 75 -9 300q-6 188 -6 301q0 88 100 88q40 0 40 -28t-5 -70q-8 -61 -9 -69q-11 -119 -11 -240q0 -154 13 -264q1 -6 8 -50q5 -30 5 -50z" />
    <glyph glyph-name="ntilde" unicode="&#xf1;" horiz-adv-x="834" 
d="M594 882q0 -27 -33.5 -51t-61.5 -24q-25 0 -75.5 23.5t-71.5 23.5q-19 0 -43.5 -23.5t-30.5 -23.5q-12 0 -19 21q-5 18 -5 32q0 25 24 45.5t51 20.5q24 0 75.5 -23t80.5 -23q21 0 45 20q19 18 38 35q11 0 18.5 -20t7.5 -33zM786 839q0 -9 -9 -58q-40 -211 -40 -453
q0 -91 5 -154q1 -11 6 -41q4 -25 4 -41q0 -65 -87 -65q-37 0 -35 21l-453 512q-6 -97 -6 -185q0 -159 14 -263q1 -6 8 -40q5 -25 5 -41q0 -24 -30 -40q-26 -15 -51 -15q-32 0 -40 24q-5 12 -14 310q-9 276 -9 330q0 90 8 110q18 47 93 47q26 0 38 -14l441 -513q1 34 12 272
q3 68 5 138q4 81 13 137q8 61 87 61q35 0 35 -39z" />
    <glyph glyph-name="ograve" unicode="&#xf2;" horiz-adv-x="1012" 
d="M972 478q0 -198 -157 -345q-155 -142 -354 -142q-174 0 -295 117t-121 290q0 161 108 293q104 126 261 173q-43 26 -125 84q-28 22 -21 59q4 23 22 42q18 22 40 18q13 -2 110 -79q90 -69 127 -103q170 -4 287.5 -120.5t117.5 -286.5zM821 431q0 138 -90 241
q-94 106 -230 106q-133 0 -227 -108q-88 -104 -88 -239q0 -137 92 -240q93 -105 229 -105q133 0 225 108q89 102 89 237z" />
    <glyph glyph-name="oacute" unicode="&#xf3;" horiz-adv-x="1012" 
d="M972 478q0 -198 -157 -345q-155 -142 -354 -142q-174 0 -295 117t-121 290q0 158 105 288q100 125 252 175q4 13 19 29q23 22 124 101q105 83 120 85q20 4 40 -17q16 -20 21 -42q7 -37 -20 -60q-35 -28 -110 -73q160 -16 267 -128q109 -116 109 -278zM821 431
q0 138 -90 241q-94 106 -230 106q-133 0 -227 -108q-88 -104 -88 -239q0 -137 92 -240q93 -105 229 -105q133 0 225 108q89 102 89 237z" />
    <glyph glyph-name="ocircumflex" unicode="&#xf4;" horiz-adv-x="1012" 
d="M972 478q0 -198 -157 -345q-155 -142 -354 -142q-174 0 -295 117t-121 290q0 132 75 248q71 110 189 174v5q0 11 18 31q86 101 116 173q15 34 36 34q10 0 24.5 -7t19.5 -19q26 -28 122 -149q4 -4 13 -15q138 -32 226 -140.5t88 -254.5zM564 885q-35 47 -75 86
q-22 -35 -70 -105q70 20 136 20zM821 431q0 138 -90 241q-94 106 -230 106q-133 0 -227 -108q-88 -104 -88 -239q0 -137 92 -240q93 -105 229 -105q133 0 225 108q89 102 89 237z" />
    <glyph glyph-name="otilde" unicode="&#xf5;" horiz-adv-x="1012" 
d="M972 478q0 -198 -157 -345q-155 -142 -354 -142q-174 0 -295 117t-121 290q0 193 149 336q144 142 337 151q-67 30 -86 30t-43.5 -23.5t-30.5 -23.5q-12 0 -19 22q-5 17 -5 32q0 24 24 44.5t51 20.5q24 0 75.5 -23t81.5 -23q20 0 45 21q18 17 38 34q10 0 17.5 -20
t7.5 -33q0 -37 -55 -64q147 -26 242 -136q98 -112 98 -265zM821 431q0 138 -90 241q-94 106 -230 106q-133 0 -227 -108q-88 -104 -88 -239q0 -137 92 -240q93 -105 229 -105q133 0 225 108q89 102 89 237z" />
    <glyph glyph-name="odieresis" unicode="&#xf6;" horiz-adv-x="1012" 
d="M726 1042q0 -11 -10 -58t-16 -58q-9 -21 -44 -21q-36 0 -36 26q0 68 7 106q3 23 54 23q45 0 45 -18zM457 1050q0 -12 -10.5 -59t-15.5 -58q-9 -21 -44 -21q-37 0 -37 26q0 69 7 106q3 23 55 23q45 0 45 -17zM972 478q0 -198 -157 -345q-155 -142 -354 -142
q-174 0 -295 117t-121 290q0 199 157 344q153 144 353 144q174 0 295.5 -117.5t121.5 -290.5zM821 431q0 138 -90 241q-94 106 -230 106q-133 0 -227 -108q-88 -104 -88 -239q0 -137 92 -240q93 -105 229 -105q133 0 225 108q89 102 89 237z" />
    <glyph glyph-name="ugrave" unicode="&#xf9;" horiz-adv-x="794" 
d="M534 785q-5 -20 -19 -34q-15 -18 -35 -14q-17 3 -43 24q-29 21 -104 66q-69 42 -103 70q-27 23 -20 59q4 24 21 42q19 23 40 19q14 -3 120 -86q101 -79 124 -101.5t19 -44.5zM725 77q0 -25 -27 -40t-54 -15q-31 0 -40 22q-3 7 -6 134q-86 -49 -227 -99q-157 -55 -233 -55
q-54 0 -54 59q0 7 1 25q1 16 0 25v12q-1 77 -11 275q-8 174 -8 274q0 79 12 106q20 43 90 43q41 0 41 -29q0 4 -12 -107q-14 -122 -14 -346q0 -168 17 -183q6 -5 19 -5q47 0 187 56q110 45 186 84q-11 234 -11 385q0 72 12 100q20 46 84 46q47 0 47 -30q0 -28 -5 -70
q-8 -62 -9 -69q-12 -118 -12 -271q0 -107 15 -221q12 -97 12 -106z" />
    <glyph glyph-name="uacute" unicode="&#xfa;" horiz-adv-x="794" 
d="M620 961q7 -37 -21 -60q-34 -28 -102 -70q-75 -46 -105 -67q-25 -20 -43 -23q-19 -4 -34 12t-19 35q-4 23 19 45.5t123 101.5q106 83 120 85q21 4 40 -18q16 -19 22 -41zM725 77q0 -25 -27 -40t-54 -15q-31 0 -40 22q-3 7 -6 134q-86 -49 -227 -99q-157 -55 -233 -55
q-54 0 -54 59q0 7 1 25q1 16 0 25v12q-1 77 -11 275q-8 174 -8 274q0 79 12 106q20 43 90 43q41 0 41 -29q0 4 -12 -107q-14 -122 -14 -346q0 -168 17 -183q6 -5 19 -5q47 0 187 56q110 45 186 84q-11 234 -11 385q0 72 12 100q20 46 84 46q47 0 47 -30q0 -28 -5 -70
q-8 -62 -9 -69q-12 -118 -12 -271q0 -107 15 -221q12 -97 12 -106z" />
    <glyph glyph-name="ucircumflex" unicode="&#xfb;" horiz-adv-x="794" 
d="M604 860q0 -11 -10.5 -26.5t-26.5 -15.5q-15 0 -32 29q-53 86 -119 150q-10 -14 -100 -145q-20 -31 -40 -31q-11 0 -26.5 9.5t-15.5 22.5q0 10 18 31q87 101 117 172q14 35 37 35q9 0 23.5 -8t19.5 -18q25 -30 121 -150q34 -42 34 -55zM725 77q0 -25 -27 -40t-54 -15
q-31 0 -40 22q-3 7 -6 134q-86 -49 -227 -99q-157 -55 -233 -55q-54 0 -54 59q0 7 1 25q1 16 0 25v12q-1 77 -11 275q-8 174 -8 274q0 79 12 106q20 43 90 43q41 0 41 -29q0 4 -12 -107q-14 -122 -14 -346q0 -168 17 -183q6 -5 19 -5q47 0 187 56q110 45 186 84
q-11 234 -11 385q0 72 12 100q20 46 84 46q47 0 47 -30q0 -28 -5 -70q-8 -62 -9 -69q-12 -118 -12 -271q0 -107 15 -221q12 -97 12 -106z" />
    <glyph glyph-name="udieresis" unicode="&#xfc;" horiz-adv-x="794" 
d="M609 976q0 -11 -10 -58.5t-15 -58.5q-10 -20 -44 -20q-37 0 -37 25q0 69 7 107q3 22 54 22q45 0 45 -17zM371 983q0 -11 -10.5 -58t-15.5 -59q-9 -20 -44 -20q-37 0 -37 25q0 69 7 107q3 22 55 22q45 0 45 -17zM725 77q0 -25 -27 -40t-54 -15q-31 0 -40 22q-3 7 -6 134
q-86 -49 -227 -99q-157 -55 -233 -55q-54 0 -54 59q0 7 1 25q1 16 0 25v12q-1 77 -11 275q-8 174 -8 274q0 79 12 106q20 43 90 43q41 0 41 -29q0 4 -12 -107q-14 -122 -14 -346q0 -168 17 -183q6 -5 19 -5q47 0 187 56q110 45 186 84q-11 234 -11 385q0 72 12 100
q20 46 84 46q47 0 47 -30q0 -28 -5 -70q-8 -62 -9 -69q-12 -118 -12 -271q0 -107 15 -221q12 -97 12 -106z" />
    <glyph glyph-name="yacute" unicode="&#xfd;" horiz-adv-x="751" 
d="M581 973q7 -37 -21 -60q-34 -27 -102 -69q-75 -46 -105 -68q-25 -19 -43 -22q-19 -4 -34 11.5t-19 35.5q-4 22 19 44.5t123 101.5q106 83 120 85q21 4 40 -17q16 -20 22 -42zM767 808q0 -13 -46 -75q-30 -39 -59 -78q-196 -268 -312 -512q-18 -44 -38 -89
q-28 -51 -71 -51q-23 0 -44 13q-26 17 -26 37q0 6 152 281l-141 185q-51 64 -145 196q-17 26 -17 49q0 21 19.5 53.5t40.5 32.5q10 0 22 -15q4 -6 46 -74q102 -167 231 -329q22 39 170 288q22 41 73 118q23 29 60 29q28 0 54 -15q31 -18 31 -44z" />
    <glyph glyph-name="ydieresis" unicode="&#xff;" horiz-adv-x="751" 
d="M579 976q0 -11 -10.5 -58.5t-15.5 -58.5q-9 -20 -44 -20q-37 0 -37 25q0 69 7 107q3 22 55 22q45 0 45 -17zM309 983q0 -11 -10 -58t-15 -59q-10 -20 -44 -20q-37 0 -37 25q0 69 7 107q3 22 54 22q45 0 45 -17zM767 808q0 -13 -46 -75q-30 -39 -59 -78
q-196 -268 -312 -512q-18 -44 -38 -89q-28 -51 -71 -51q-23 0 -44 13q-26 17 -26 37q0 6 152 281l-141 185q-51 64 -145 196q-17 26 -17 49q0 21 19.5 53.5t40.5 32.5q10 0 22 -15q4 -6 46 -74q102 -167 231 -329q22 39 170 288q22 41 73 118q23 29 60 29q28 0 54 -15
q31 -18 31 -44z" />
    <glyph glyph-name="Ydieresis" unicode="&#x178;" horiz-adv-x="751" 
d="M579 976q0 -11 -10.5 -58.5t-15.5 -58.5q-9 -20 -44 -20q-37 0 -37 25q0 69 7 107q3 22 55 22q45 0 45 -17zM309 983q0 -11 -10 -58t-15 -59q-10 -20 -44 -20q-37 0 -37 25q0 69 7 107q3 22 54 22q45 0 45 -17zM767 808q0 -13 -46 -75q-30 -39 -59 -78
q-196 -268 -312 -512q-18 -44 -38 -89q-28 -51 -71 -51q-23 0 -44 13q-26 17 -26 37q0 6 152 281l-141 185q-51 64 -145 196q-17 26 -17 49q0 21 19.5 53.5t40.5 32.5q10 0 22 -15q4 -6 46 -74q102 -167 231 -329q22 39 170 288q22 41 73 118q23 29 60 29q28 0 54 -15
q31 -18 31 -44z" />
    <glyph glyph-name="quoteleft" unicode="&#x2018;" horiz-adv-x="411" 
d="M308 654q0 -19 -17 -31.5t-36 -12.5q-27 0 -44.5 26t-75.5 142q-60 121 -60 135q0 22 25 36q22 13 45 13q38 0 52 -29t61 -146q50 -123 50 -133z" />
    <glyph glyph-name="quoteright" unicode="&#x2019;" horiz-adv-x="407" 
d="M352 912q0 -14 -60 -135q-59 -115 -76 -141t-40 -26q-21 0 -38 12q-19 12 -19 32q0 16 16 48.5t45 114.5q28 75 49 114q16 31 54 31q23 0 45 -13q24 -15 24 -37z" />
    <glyph glyph-name="quotedblleft" unicode="&#x201c;" horiz-adv-x="566" 
d="M485 658q0 -18 -16.5 -31t-36.5 -13q-25 0 -45 28q-17 25 -76 140q-60 121 -60 137q0 21 25 35q23 13 47 13q36 0 52 -31q11 -23 60 -144q50 -126 50 -134zM298 596q0 -21 -18 -32t-39 -11q-23 0 -40.5 25.5t-75.5 142.5q-60 121 -60 135q0 22 25 36q22 12 45 12
q36 0 52 -31q10 -18 60.5 -144.5t50.5 -132.5z" />
    <glyph glyph-name="quotedblright" unicode="&#x201d;" horiz-adv-x="521" 
d="M501 855q0 -15 -61 -135q-57 -114 -75.5 -140.5t-40.5 -26.5q-21 0 -39.5 12t-18.5 31q0 14 17 48t46 115q26 76 47 113q17 32 55 32q24 0 47 -13t23 -36zM313 918q0 -15 -60 -136q-58 -115 -75 -140q-19 -28 -45 -28q-20 0 -36.5 12.5t-16.5 31.5q0 16 16 48.5t45 114.5
q28 76 48 115q17 31 55 31q23 0 45 -13q24 -15 24 -36z" />
    <glyph glyph-name="ellipsis" unicode="&#x2026;" horiz-adv-x="819" 
d="M735 185q0 -14 -12.5 -73t-19.5 -72q-11 -26 -54 -26q-46 0 -46 32q0 85 8 133q5 28 68 28q56 0 56 -22zM485 184q0 -14 -12.5 -73t-18.5 -72q-12 -26 -55 -26q-46 0 -46 32q0 85 8 133q6 28 68 28q56 0 56 -22zM236 183q0 -14 -13 -73t-19 -72q-11 -26 -54 -26
q-47 0 -47 32q0 85 9 133q5 28 67 28q57 0 57 -22z" />
    <glyph glyph-name="trademark" unicode="&#x2122;" horiz-adv-x="1015" 
d="M950 498q0 -14 -17 -31t-30 -17q-8 0 -14.5 9t-46.5 137q-24 78 -48 157q-27 -91 -53 -184q-48 -148 -74 -148q-39 0 -133 295q-83 -244 -116 -291q-7 -10 -16 -10q-16 0 -30 23q-14 21 -15 38q8 19 25 54q54 112 90 220q9 31 28 94q10 30 30 30q14 0 23 -18
q5 -19 16 -56q15 -50 44 -121q26 -58 51 -118q25 67 54 168q47 165 48 169q9 29 33 29q15 0 26 -36q0 -1 13 -51q25 -104 45 -161q19 -47 39 -94q28 -73 28 -87zM381 852q0 -14 -55 -22q-35 -2 -71 -4q-5 -64 -5 -128q0 -103 14 -204q8 -57 8 -59q0 -13 -16 -23.5t-31 -10.5
q-16 0 -22 13q-12 23 -15 397q-95 -30 -98 -30q-13 0 -21 16q-7 12 -7 26q0 46 85 68q58 14 127 14q34 0 65 -10q42 -15 42 -43z" />
    <glyph glyph-name="glyph159" horiz-adv-x="424" 
 />
    <glyph glyph-name="glyph160" horiz-adv-x="424" 
 />
    <glyph glyph-name="glyph109" horiz-adv-x="424" 
 />
    </font>
</defs>
</svg>
